<svg xmlns="http://www.w3.org/2000/svg" width="451.286" height="432.765" viewBox="0 0 451.286 432.765">
  <g id="Group_1305" data-name="Group 1305" transform="translate(-66.43 83.629)">
    <g id="Group_1029" data-name="Group 1029" transform="translate(293.256 228.748)">
      <g id="Group_1003" data-name="Group 1003">
        <g id="Group_1002" data-name="Group 1002">
          <g id="Group_1001" data-name="Group 1001">
            <g id="Group_1000" data-name="Group 1000">
              <path id="Path_1483" data-name="Path 1483" d="M316.242,340.3c-17.614-8.34-24.644-28.163-27.127-46.631-.415-3.083-1.3-6.257-.3-9.193s4.094-5.348,7.057-4.522c2.458.687,3.9,3.166,5.542,5.141a18.187,18.187,0,0,0,8.349,5.65c2.124.682,4.643.893,6.39-.5,2.4-1.906,2.091-5.611,1.557-8.657q-1.5-8.513-2.991-17.027a28.817,28.817,0,0,1-.611-9.21c.458-3.054,2.1-6.1,4.861-7.4s6.632-.237,7.749,2.643a28.51,28.51,0,0,1,.729,3.781c.3,1.252,1.125,2.552,2.387,2.7,1.278.151,2.351-.919,3.111-1.965,2.626-3.61,4.09-7.936,5.419-12.218s2.582-8.646,4.869-12.486,5.786-7.169,10.109-8.154,9.432.922,11.26,5.021.064,8.9-2.076,12.835a69.02,69.02,0,0,1-11.884,15.9,5.682,5.682,0,0,0-1.939,2.949c-.318,2.144,1.949,3.837,4.069,4.166,2.4.372,4.826-.281,7.25-.4s5.177.491,6.456,2.585c1.775,2.9-.278,6.612-2.48,9.184a59.139,59.139,0,0,1-15.567,12.877c-2.1,1.2-4.342,2.319-5.884,4.2s-2.17,4.806-.714,6.768,4.378,2.177,6.653,1.344,4.162-2.464,6.258-3.687c3.922-2.29,9.38-2.917,12.677.249a9.785,9.785,0,0,1,2.469,8.357,22.547,22.547,0,0,1-3.346,8.316,59.451,59.451,0,0,1-22.054,21.824c-9.147,5.013-18,7.449-28.253,5.551" transform="translate(-288.359 -222.004)" fill="#f5f5f5"/>
            </g>
          </g>
        </g>
      </g>
      <g id="Group_1008" data-name="Group 1008" transform="translate(30.676 1.841)">
        <g id="Group_1007" data-name="Group 1007">
          <g id="Group_1006" data-name="Group 1006">
            <g id="Group_1005" data-name="Group 1005">
              <g id="Group_1004" data-name="Group 1004">
                <path id="Path_1484" data-name="Path 1484" d="M318.372,327.947A276.979,276.979,0,0,1,324.24,296.7l1.959-8.111c.649-2.66,1.292-5.3,2.081-7.84a138.31,138.31,0,0,1,5.37-14.346c1.929-4.481,3.923-8.662,5.815-12.558s3.743-7.49,5.561-10.695a109.639,109.639,0,0,1,9.693-14.474c1.275-1.614,2.3-2.832,3.012-3.65.342-.388.609-.694.812-.924a2.258,2.258,0,0,1,.291-.3,2.231,2.231,0,0,1-.246.339c-.191.239-.447.556-.769.961-.68.84-1.68,2.081-2.926,3.713a115.915,115.915,0,0,0-9.517,14.537c-1.791,3.209-3.607,6.807-5.486,10.7s-3.848,8.086-5.759,12.56a140.022,140.022,0,0,0-5.317,14.3c-.781,2.53-1.416,5.145-2.065,7.813l-1.955,8.107a284.016,284.016,0,0,0-5.9,31.173" transform="translate(-318.372 -223.805)" fill="#e0e0e0"/>
              </g>
            </g>
          </g>
        </g>
      </g>
      <g id="Group_1013" data-name="Group 1013" transform="translate(30.61 25.953)">
        <g id="Group_1012" data-name="Group 1012">
          <g id="Group_1011" data-name="Group 1011">
            <g id="Group_1010" data-name="Group 1010">
              <g id="Group_1009" data-name="Group 1009">
                <path id="Path_1485" data-name="Path 1485" d="M328.438,280.183a6.273,6.273,0,0,1-.517-1.25c-.3-.816-.7-2.009-1.172-3.491-.944-2.962-2.11-7.1-3.376-11.662s-2.488-8.673-3.475-11.614c-.49-1.471-.9-2.658-1.19-3.474a6.261,6.261,0,0,1-.395-1.295,6.149,6.149,0,0,1,.6,1.213c.357.793.824,1.962,1.362,3.422,1.089,2.916,2.374,7.022,3.643,11.592,1.239,4.507,2.359,8.585,3.214,11.7.4,1.405.73,2.589,1,3.539A6.124,6.124,0,0,1,328.438,280.183Z" transform="translate(-318.308 -247.397)" fill="#e0e0e0"/>
              </g>
            </g>
          </g>
        </g>
      </g>
      <g id="Group_1018" data-name="Group 1018" transform="translate(40.739 44.774)">
        <g id="Group_1017" data-name="Group 1017">
          <g id="Group_1016" data-name="Group 1016">
            <g id="Group_1015" data-name="Group 1015">
              <g id="Group_1014" data-name="Group 1014">
                <path id="Path_1486" data-name="Path 1486" d="M366.173,265.821a8.592,8.592,0,0,1-1.531.452c-.99.26-2.426.628-4.184,1.139-3.524.995-8.344,2.54-13.587,4.477s-9.91,3.91-13.246,5.428c-1.674.747-3.012,1.388-3.939,1.825a8.534,8.534,0,0,1-1.467.635,8.507,8.507,0,0,1,1.365-.834c.9-.5,2.214-1.2,3.871-2,3.3-1.617,7.962-3.646,13.218-5.6a140.381,140.381,0,0,1,13.679-4.327c1.777-.463,3.232-.773,4.242-.965A8.363,8.363,0,0,1,366.173,265.821Z" transform="translate(-328.219 -265.812)" fill="#e0e0e0"/>
              </g>
            </g>
          </g>
        </g>
      </g>
      <g id="Group_1023" data-name="Group 1023" transform="translate(2.833 58.461)">
        <g id="Group_1022" data-name="Group 1022">
          <g id="Group_1021" data-name="Group 1021">
            <g id="Group_1020" data-name="Group 1020">
              <g id="Group_1019" data-name="Group 1019">
                <path id="Path_1487" data-name="Path 1487" d="M319.333,325.923a2.068,2.068,0,0,1-.35-.433l-.91-1.3c-.786-1.137-1.88-2.811-3.2-4.9-2.65-4.17-6.13-10.046-9.882-16.581s-7.175-12.437-9.735-16.657c-1.251-2.05-2.28-3.737-3.046-4.99l-.822-1.362a2.044,2.044,0,0,1-.253-.5,2.1,2.1,0,0,1,.35.433l.91,1.3c.786,1.136,1.879,2.81,3.2,4.9,2.65,4.17,6.13,10.046,9.883,16.583s7.174,12.435,9.734,16.656c1.252,2.048,2.28,3.736,3.046,4.988.329.545.6.994.822,1.363A2.064,2.064,0,0,1,319.333,325.923Z" transform="translate(-291.13 -279.203)" fill="#e0e0e0"/>
              </g>
            </g>
          </g>
        </g>
      </g>
      <g id="Group_1028" data-name="Group 1028" transform="translate(31.035 79.581)">
        <g id="Group_1027" data-name="Group 1027">
          <g id="Group_1026" data-name="Group 1026">
            <g id="Group_1025" data-name="Group 1025">
              <g id="Group_1024" data-name="Group 1024">
                <path id="Path_1488" data-name="Path 1488" d="M367.966,299.87a2.139,2.139,0,0,1-.48.3l-1.427.762c-1.32.69-3.1,1.62-5.272,2.75-4.45,2.324-10.56,5.6-17.308,9.237s-12.894,6.863-17.395,9.1c-2.25,1.116-4.079,2-5.356,2.588l-1.474.665a2.123,2.123,0,0,1-.531.2,2.135,2.135,0,0,1,.48-.3l1.428-.762,5.27-2.75c4.451-2.323,10.562-5.6,17.311-9.238s12.892-6.861,17.393-9.093c2.25-1.117,4.079-2,5.357-2.588l1.474-.666A2.009,2.009,0,0,1,367.966,299.87Z" transform="translate(-318.724 -299.867)" fill="#e0e0e0"/>
              </g>
            </g>
          </g>
        </g>
      </g>
    </g>
    <g id="Group_1053" data-name="Group 1053" transform="translate(177.124 127.382)">
      <g id="Group_1031" data-name="Group 1031">
        <g id="Group_1030" data-name="Group 1030">
          <path id="Path_1489" data-name="Path 1489" d="M190.95,123.105s-12.145,1.687-5.327,28.284,12.6,40.305,12.6,40.305.916,6.025-3.94,5.839-14.758-4.129-18.117,1.111c-3.483,5.434-.437,11.983,7.18,18.838s23.754,22.484,25.207,23.9c1.428,1.393,2.51,4.344-.819,4.748s-26.967-2.371-27.613,8.925,23.713,26.9,26.343,28.662,3.045,3.132,2.455,4.66-8.446-.153-15.2-.667-14.679.076-14.505,6.624,12.963,23.094,50.275,35.4l17.662,4.57,13.056-12.858c26.265-29.219,29.141-49.933,26.038-55.7s-10.271-2.343-15.879,1.461-11.589,9.167-12.861,8.134-1.594-2.431-.185-5.264,14.789-28.482,8.616-37.963-25.307,4.673-28.4,5.977-3.616-1.795-3.07-3.713c.557-1.953,6.794-23.536,10-33.269s2.592-16.929-3.131-19.915c-5.519-2.878-12.152,5.464-16.274,8.039s-6.32-3.108-6.32-3.108-1.794-14.77-9.094-41.238-18.941-21.726-18.941-21.726" transform="translate(-174.734 -122.826)" fill="#ebebeb"/>
        </g>
      </g>
      <g id="Group_1034" data-name="Group 1034" transform="translate(22.281 24.108)">
        <g id="Group_1033" data-name="Group 1033">
          <g id="Group_1032" data-name="Group 1032">
            <path id="Path_1490" data-name="Path 1490" d="M246.651,338.174c-5.285-19.46-14.1-54.205-21.818-84s-14.73-56.738-19.916-76.223c-2.6-9.723-4.7-17.6-6.165-23.069-.722-2.706-1.284-4.816-1.672-6.274-.181-.7-.321-1.245-.421-1.635-.092-.369-.125-.562-.125-.562s.071.182.181.547c.113.386.271.925.474,1.62.413,1.451,1.01,3.553,1.775,6.247,1.535,5.425,3.7,13.293,6.34,23.023,5.285,19.461,12.36,46.4,20.077,76.185s16.471,64.55,21.657,84.034" transform="translate(-196.534 -146.414)" fill="#e0e0e0"/>
          </g>
        </g>
      </g>
      <g id="Group_1037" data-name="Group 1037" transform="translate(15.062 81.888)">
        <g id="Group_1036" data-name="Group 1036">
          <g id="Group_1035" data-name="Group 1035">
            <path id="Path_1491" data-name="Path 1491" d="M189.471,202.949a5.906,5.906,0,0,1,1.163.624c.732.43,1.77,1.083,3.046,1.9,2.548,1.641,6.01,4,9.783,6.67l9.634,6.872c1.161.819,2.142,1.509,2.93,2.064a5.944,5.944,0,0,1,1.049.8,5.934,5.934,0,0,1-1.168-.616c-.731-.432-1.77-1.085-3.038-1.917-2.533-1.668-5.962-4.07-9.734-6.741l-9.679-6.8-2.944-2.049A5.851,5.851,0,0,1,189.471,202.949Z" transform="translate(-189.47 -202.946)" fill="#e0e0e0"/>
          </g>
        </g>
      </g>
      <g id="Group_1040" data-name="Group 1040" transform="translate(44.136 67.429)">
        <g id="Group_1039" data-name="Group 1039">
          <g id="Group_1038" data-name="Group 1038">
            <path id="Path_1492" data-name="Path 1492" d="M217.919,221.33c-.131-.085,4.415-7.436,10.154-16.416s10.5-16.2,10.633-16.114-4.414,7.433-10.155,16.418S218.051,221.414,217.919,221.33Z" transform="translate(-217.916 -188.799)" fill="#e0e0e0"/>
          </g>
        </g>
      </g>
      <g id="Group_1043" data-name="Group 1043" transform="translate(53.928 122.714)">
        <g id="Group_1042" data-name="Group 1042">
          <g id="Group_1041" data-name="Group 1041">
            <path id="Path_1493" data-name="Path 1493" d="M227.5,266.413a6.144,6.144,0,0,1,.97-.937l2.755-2.41c2.322-2.039,5.519-4.867,8.931-8.117s6.413-6.287,8.563-8.508l2.549-2.628a6.048,6.048,0,0,1,.983-.921,6.14,6.14,0,0,1-.821,1.069c-.556.663-1.378,1.609-2.419,2.753-2.078,2.295-5.035,5.391-8.465,8.645s-6.67,6.049-9.063,8.012c-1.2.977-2.181,1.757-2.875,2.275A6.2,6.2,0,0,1,227.5,266.413Z" transform="translate(-227.498 -242.891)" fill="#e0e0e0"/>
          </g>
        </g>
      </g>
      <g id="Group_1046" data-name="Group 1046" transform="translate(24.033 135.674)">
        <g id="Group_1045" data-name="Group 1045">
          <g id="Group_1044" data-name="Group 1044">
            <path id="Path_1494" data-name="Path 1494" d="M198.248,255.578a5.3,5.3,0,0,1,1.211.293l3.234,1c2.723.868,6.472,2.1,10.6,3.5s7.86,2.7,10.55,3.66l3.176,1.171a5.167,5.167,0,0,1,1.14.5,5.281,5.281,0,0,1-1.21-.294l-3.234-1c-2.723-.869-6.473-2.1-10.6-3.5s-7.859-2.7-10.549-3.661l-3.176-1.171A5.324,5.324,0,0,1,198.248,255.578Z" transform="translate(-198.248 -255.571)" fill="#e0e0e0"/>
          </g>
        </g>
      </g>
      <g id="Group_1049" data-name="Group 1049" transform="translate(27.488 177.626)">
        <g id="Group_1048" data-name="Group 1048">
          <g id="Group_1047" data-name="Group 1047">
            <path id="Path_1495" data-name="Path 1495" d="M201.628,296.623a8.66,8.66,0,0,1,1.545.391l4.15,1.266c3.5,1.093,8.312,2.64,13.622,4.383s10.109,3.35,13.573,4.54l4.093,1.438a8.518,8.518,0,0,1,1.476.6,8.654,8.654,0,0,1-1.545-.391l-4.149-1.266c-3.5-1.094-8.313-2.64-13.625-4.384s-10.107-3.349-13.571-4.539l-4.092-1.438A8.5,8.5,0,0,1,201.628,296.623Z" transform="translate(-201.628 -296.617)" fill="#e0e0e0"/>
          </g>
        </g>
      </g>
      <g id="Group_1052" data-name="Group 1052" transform="translate(65.112 158.997)">
        <g id="Group_1051" data-name="Group 1051">
          <g id="Group_1050" data-name="Group 1050">
            <path id="Path_1496" data-name="Path 1496" d="M238.441,309.084a9.763,9.763,0,0,1,1.2-1.217l3.383-3.183c2.853-2.69,6.779-6.421,11-10.661s7.95-8.169,10.625-11.035l3.171-3.393a9.9,9.9,0,0,1,1.212-1.2,9.72,9.72,0,0,1-1.047,1.349c-.7.844-1.736,2.049-3.041,3.516-2.6,2.939-6.287,6.924-10.52,11.167s-8.2,7.938-11.128,10.556c-1.467,1.305-2.664,2.349-3.508,3.052A9.782,9.782,0,0,1,238.441,309.084Z" transform="translate(-238.44 -278.39)" fill="#e0e0e0"/>
          </g>
        </g>
      </g>
    </g>
    <g id="Group_1054" data-name="Group 1054" transform="translate(102.032 -83.629)">
      <path id="Path_1497" data-name="Path 1497" d="M139.834-31.239l-9.974-3.112s-2.612,8.375-11.363,5.81a8.454,8.454,0,0,1-6.208-7.59,9.36,9.36,0,0,1,3.231-7.857c2.561-2.262,7.059-3.641,13.413-.359l7.016-22.491-9.863-3.076-4.11,13.173s-14.949-.739-19.7,14.505c-4.55,14.585,7.473,22.053,13.072,23.8C119.624-17.1,134.532-13.584,139.834-31.239Z" transform="translate(-101.264 83.932)" fill="#f5f5f5"/>
      <rect id="Rectangle_98" data-name="Rectangle 98" width="10.485" height="9.793" transform="matrix(-0.955, -0.298, 0.298, -0.955, 36.157, 12.471)" fill="#f5f5f5"/>
    </g>
    <g id="Group_1055" data-name="Group 1055" transform="translate(167.738 -66.016)">
      <path id="Path_1498" data-name="Path 1498" d="M165.945-56.708l3.994-1.054a3.509,3.509,0,0,1,2.585-4.333,3.341,3.341,0,0,1,3.673,1.237,3.7,3.7,0,0,1,.569,3.31c-.383,1.295-1.6,2.7-4.416,2.938l2.375,9.005,3.949-1.041-1.391-5.276a7.975,7.975,0,0,0,3.551-9c-1.54-5.841-7.136-5.816-9.378-5.224C169.741-65.69,164.01-63.735,165.945-56.708Z" transform="translate(-165.551 66.397)" fill="#ebebeb"/>
      <rect id="Rectangle_99" data-name="Rectangle 99" width="4.145" height="3.872" transform="matrix(0.967, -0.255, 0.255, 0.967, 9.653, 22.652)" fill="#ebebeb"/>
    </g>
    <g id="Group_1056" data-name="Group 1056" transform="translate(496.98 41.878)">
      <path id="Path_1499" data-name="Path 1499" d="M488.745,44.406l3.884,1.407a3.511,3.511,0,0,1,4.592-2.092,3.343,3.343,0,0,1,2.316,3.109,3.7,3.7,0,0,1-1.415,3.045c-1.053.847-2.854,1.312-5.3-.1l-3.173,8.757,3.841,1.391,1.858-5.13a7.976,7.976,0,0,0,8.041-5.377c2.057-5.679-2.557-8.843-4.737-9.633C496.98,39.182,491.154,37.528,488.745,44.406Z" transform="translate(-487.662 -39.168)" fill="#ebebeb"/>
      <rect id="Rectangle_100" data-name="Rectangle 100" width="4.145" height="3.872" transform="translate(1.319 21.167) rotate(19.914)" fill="#ebebeb"/>
    </g>
    <g id="Group_1057" data-name="Group 1057" transform="translate(84.317 69.157)">
      <path id="Path_1500" data-name="Path 1500" d="M85.491,88.3l8.22-3.166s-2.659-6.9,4.465-9.788a7.127,7.127,0,0,1,8.076,1.763,7.893,7.893,0,0,1,1.979,6.884c-.508,2.835-2.759,6.1-8.674,7.26l7.14,18.533,8.127-3.131L110.643,95.8s10.265-7.338,5.425-19.9c-4.631-12.019-16.485-10.659-21.1-8.882C91.44,68.376,79.75,73.86,85.491,88.3Z" transform="translate(-83.931 -65.858)" fill="#f5f5f5"/>
      <rect id="Rectangle_101" data-name="Rectangle 101" width="8.84" height="8.256" transform="matrix(0.933, -0.359, 0.359, 0.933, 24.215, 47.755)" fill="#f5f5f5"/>
    </g>
    <g id="Group_1058" data-name="Group 1058" transform="translate(477.257 99.386)">
      <path id="Path_1501" data-name="Path 1501" d="M492.36,118.655l-5.825,2.244s1.884,4.891-3.165,6.936a5.048,5.048,0,0,1-5.723-1.25,5.591,5.591,0,0,1-1.4-4.877c.361-2.009,1.955-4.324,6.148-5.145l-5.06-13.134-5.759,2.219,2.964,7.694a12.052,12.052,0,0,0-3.844,14.1c3.281,8.517,11.681,7.553,14.951,6.293C488.144,132.775,496.428,128.889,492.36,118.655Z" transform="translate(-468.357 -95.258)" fill="#f5f5f5"/>
      <rect id="Rectangle_102" data-name="Rectangle 102" width="6.264" height="5.85" transform="translate(7.949 5.459) rotate(158.931)" fill="#f5f5f5"/>
    </g>
    <g id="Group_1059" data-name="Group 1059" transform="translate(66.43 348.529)">
      <path id="Path_1502" data-name="Path 1502" d="M517.716,339.465c0,.147-101.031.267-225.632.267-124.643,0-225.654-.12-225.654-.267s101.011-.266,225.654-.266C416.685,339.2,517.716,339.318,517.716,339.465Z" transform="translate(-66.43 -339.199)" fill="#263238"/>
    </g>
    <g id="Group_1062" data-name="Group 1062" transform="translate(91.935 246.699)">
      <g id="Group_1061" data-name="Group 1061">
        <g id="Group_1060" data-name="Group 1060">
          <path id="Path_1503" data-name="Path 1503" d="M130.687,315.12c.971-3.759-1.494-7.533-4.257-10.26s-6.065-5.17-7.5-8.775c-2.328-5.842.8-13.405-3.171-18.28-2.337-2.868-6.53-3.827-8.6-6.89a15.682,15.682,0,0,1-1.868-5.474,55.6,55.6,0,0,0-13.828-25.875A48.257,48.257,0,0,0,96.881,264.5c1.61,3.064,3.585,6.052,4.119,9.471.866,5.554-2.234,11.274-.87,16.727,1.561,6.236,8.565,10.41,8.9,16.83.281,5.427-4.449,10.19-4.1,15.614a14.641,14.641,0,0,0,2.414,6.435c4.2,6.977,10.361,11.781,19.705,11.625l11.444.4Z" transform="translate(-91.384 -239.567)" fill="#e8505b"/>
        </g>
      </g>
    </g>
    <g id="Group_1066" data-name="Group 1066" transform="translate(91.935 246.699)">
      <g id="Group_1065" data-name="Group 1065">
        <g id="Group_1064" data-name="Group 1064">
          <g id="Group_1063" data-name="Group 1063">
            <path id="Path_1504" data-name="Path 1504" d="M130.687,315.12c.971-3.759-1.494-7.533-4.257-10.26s-6.065-5.17-7.5-8.775c-2.328-5.842.8-13.405-3.171-18.28-2.337-2.868-6.53-3.827-8.6-6.89a15.682,15.682,0,0,1-1.868-5.474,55.6,55.6,0,0,0-13.828-25.875A48.257,48.257,0,0,0,96.881,264.5c1.61,3.064,3.585,6.052,4.119,9.471.866,5.554-2.234,11.274-.87,16.727,1.561,6.236,8.565,10.41,8.9,16.83.281,5.427-4.449,10.19-4.1,15.614a14.641,14.641,0,0,0,2.414,6.435c4.2,6.977,10.361,11.781,19.705,11.625l11.444.4Z" transform="translate(-91.384 -239.567)" fill="#36b1ff"/>
          </g>
        </g>
      </g>
    </g>
    <g id="Group_1075" data-name="Group 1075" transform="translate(135.562 207.386)">
      <g id="Group_1070" data-name="Group 1070" transform="translate(0)">
        <g id="Group_1069" data-name="Group 1069">
          <g id="Group_1068" data-name="Group 1068">
            <g id="Group_1067" data-name="Group 1067">
              <path id="Path_1505" data-name="Path 1505" d="M139.87,342.757a9.122,9.122,0,0,0,3.151-.067,19.172,19.172,0,0,0,3.718-.936,15.758,15.758,0,0,0,4.593-2.516,6.4,6.4,0,0,0,1.89-2.517,11.833,11.833,0,0,0,.539-3.419,33.229,33.229,0,0,1,.267-3.7,10.225,10.225,0,0,1,1.4-3.682c1.35-2.37,3.591-4.614,4.314-7.832.783-3.166.222-6.591-.311-10.032s-1.047-7.176.267-10.752c1.227-3.579,3.738-6.81,4.993-10.845,1.249-4.076.666-8.459.93-12.782a16.971,16.971,0,0,1,1.492-6.354c.926-2.026,2.21-3.937,3.212-6.069,2.032-4.312,2.391-9.2,2.946-13.987q.406-3.62.822-7.313a35.732,35.732,0,0,1,1.271-7.319,64.638,64.638,0,0,1,2.737-7.083,23.481,23.481,0,0,0,1.329-3.7,37.185,37.185,0,0,0,.369-3.936,46.34,46.34,0,0,0-.3-7.922c-.311-2.642-.787-5.26-1.071-7.907-.017-.156-.036-.313-.051-.456l-.059-.527-.469.234a17.707,17.707,0,0,0-6.161,5.2,28.049,28.049,0,0,0-3.785,6.977c-1.912,4.916-2.6,10.069-3.564,14.987-.941,4.917-2.181,9.755-4.7,13.842-1.254,2.038-2.772,3.9-4.1,5.887a16.169,16.169,0,0,0-2.839,6.522c-.678,4.842,1.99,9.094,1.435,13.381a14.861,14.861,0,0,1-2.088,5.939c-1.039,1.828-2.261,3.524-3.42,5.229a33.593,33.593,0,0,0-3.072,5.28,16.72,16.72,0,0,0-1.405,5.737c-.279,3.86.268,7.521-.014,10.978A25.254,25.254,0,0,1,141.3,310.7c-1.385,2.816-2.924,5.362-4.214,7.831a39.815,39.815,0,0,0-1.735,3.648,17.951,17.951,0,0,0-1,3.617,22.823,22.823,0,0,0-.084,6.533,16.449,16.449,0,0,0,3.274,8.33,7.846,7.846,0,0,0,.926,1,4.615,4.615,0,0,0,.751.639c.427.314.655.458.655.458a14.358,14.358,0,0,1-2.217-2.191,16.568,16.568,0,0,1-3.106-8.274,22.718,22.718,0,0,1,.146-6.438,17.611,17.611,0,0,1,1.012-3.533,39.978,39.978,0,0,1,1.746-3.6c1.3-2.447,2.856-4.983,4.27-7.816a25.71,25.71,0,0,0,2.923-9.572c.3-3.53-.231-7.2.06-10.973a16.158,16.158,0,0,1,1.38-5.545,33.052,33.052,0,0,1,3.038-5.175c1.158-1.694,2.394-3.4,3.462-5.262a15.466,15.466,0,0,0,2.184-6.182c.552-4.567-2.1-8.847-1.407-13.347a15.532,15.532,0,0,1,2.743-6.24c1.307-1.951,2.832-3.813,4.124-5.9,2.6-4.2,3.86-9.135,4.811-14.072.973-4.948,1.663-10.047,3.54-14.863a27.335,27.335,0,0,1,3.686-6.792,16.962,16.962,0,0,1,5.9-4.986l-.527-.292c.016.146.034.3.052.462.287,2.678.766,5.3,1.073,7.912a45.7,45.7,0,0,1,.3,7.8,37.469,37.469,0,0,1-.352,3.817,22.929,22.929,0,0,1-1.284,3.568,64.943,64.943,0,0,0-2.759,7.162,36.31,36.31,0,0,0-1.289,7.44q-.411,3.7-.812,7.319c-.547,4.809-.906,9.617-2.862,13.778-.967,2.073-2.25,3.989-3.2,6.08a17.635,17.635,0,0,0-1.534,6.589c-.249,4.417.325,8.735-.87,12.647-1.186,3.893-3.682,7.142-4.944,10.835-1.35,3.732-.791,7.6-.245,11.018.553,3.445,1.108,6.8.37,9.841-.661,3.074-2.837,5.3-4.214,7.736a10.587,10.587,0,0,0-1.42,3.828,33.217,33.217,0,0,0-.241,3.746,11.623,11.623,0,0,1-.488,3.327,6.134,6.134,0,0,1-1.775,2.408,15.691,15.691,0,0,1-4.483,2.529,19.7,19.7,0,0,1-3.667.994,14.577,14.577,0,0,1-2.327.225C140.143,342.749,139.87,342.757,139.87,342.757Z" transform="translate(-134.069 -201.103)" fill="#263238"/>
            </g>
          </g>
        </g>
      </g>
      <g id="Group_1074" data-name="Group 1074" transform="translate(5.797 6.828)">
        <g id="Group_1073" data-name="Group 1073">
          <g id="Group_1072" data-name="Group 1072">
            <g id="Group_1071" data-name="Group 1071">
              <path id="Path_1506" data-name="Path 1506" d="M175.906,207.784a1.353,1.353,0,0,0-.11.346c-.067.274-.15.612-.252,1.03-.225.9-.494,2.262-.926,3.963-.45,1.695-1.487,3.613-2.375,5.977-.923,2.346-1.859,5.064-2.721,8.118s-1.647,6.441-2.455,10.071c-.834,3.624-1.667,7.511-3.663,11.177-.938,1.859-2,3.741-2.833,5.8a27,27,0,0,0-1.649,6.567,132.565,132.565,0,0,1-2.467,13.846c-2.295,9.379-4.48,18.311-6.471,26.445-2.038,8.106-3.875,15.411-5.423,21.568-1.507,6.1-2.731,11.06-3.595,14.556q-.6,2.517-.941,3.967l-.227,1.036a1.315,1.315,0,0,0-.052.359,1.331,1.331,0,0,0,.125-.34c.08-.271.178-.605.3-1.018q.391-1.433,1.074-3.933c.918-3.482,2.22-8.421,3.822-14.5,1.592-6.147,3.48-13.437,5.576-21.529,2.008-8.136,4.215-17.071,6.531-26.452a130.843,130.843,0,0,0,2.463-13.9,26.394,26.394,0,0,1,1.586-6.408c.808-2.006,1.848-3.879,2.787-5.757,2.013-3.735,2.852-7.74,3.654-11.349.783-3.641,1.524-7.021,2.36-10.065s1.721-5.762,2.6-8.11c.842-2.356,1.847-4.3,2.269-6.05.4-1.742.614-3.089.794-4.006.073-.424.133-.768.181-1.046A1.339,1.339,0,0,0,175.906,207.784Z" transform="translate(-139.741 -207.784)" fill="#263238"/>
            </g>
          </g>
        </g>
      </g>
    </g>
    <g id="Group_1078" data-name="Group 1078" transform="translate(102.032 171.13)">
      <g id="Group_1077" data-name="Group 1077">
        <g id="Group_1076" data-name="Group 1076">
          <path id="Path_1507" data-name="Path 1507" d="M142.614,343.576c7.475-4.444,9.621-17.93,6.5-26.048s-8.576-15.535-9.417-24.19c-.647-6.654,1.531-13.482-.018-19.985-2.091-8.775-10.659-15.573-10.56-24.6.055-5.061,2.934-9.824,2.705-14.881-.281-6.2-5.042-11.123-7.991-16.587-4.513-8.364-4.811-18.252-6.354-27.63s-5.116-19.42-13.428-24.029c-1.228,7.961-3.323,13.414-2.665,24.2.237,3.874,4.736,11.289,5.348,19.778.366,5.074.619,10.154.929,15.232.3,4.942.622,9.972,2.394,14.6,1.356,3.542,3.537,6.761,4.545,10.418,1.9,6.881-.595,14.333.936,21.3,1.3,5.907,5.384,10.989,6.219,16.978,1.173,8.415-4.272,17.157-1.485,25.184,1.384,3.982,4.66,7.18,5.59,11.293.721,3.191-.065,6.569.588,9.774,1.053,5.163,10.9,9.175,16.163,8.855" transform="translate(-101.264 -165.63)" fill="#36b1ff"/>
        </g>
      </g>
    </g>
    <g id="Group_1082" data-name="Group 1082" transform="translate(106.878 179.033)">
      <g id="Group_1081" data-name="Group 1081">
        <g id="Group_1080" data-name="Group 1080">
          <g id="Group_1079" data-name="Group 1079">
            <path id="Path_1508" data-name="Path 1508" d="M106.009,173.362a2.1,2.1,0,0,0,.033.45c.043.334.1.766.169,1.308.172,1.15.364,2.838.752,5.021.418,2.2,1.549,4.667,2.453,7.647.955,2.971,1.9,6.4,2.742,10.236s1.566,8.08,2.316,12.65c.774,4.535,1.566,9.546,3.832,14.3,1.049,2.39,2.225,4.78,3.107,7.329a32.869,32.869,0,0,1,1.577,8.077,163.207,163.207,0,0,0,2.192,17.414c2.289,11.8,4.471,23.031,6.455,33.259,2.092,10.186,3.977,19.364,5.564,27.09l3.813,18.25,1.073,4.955c.124.532.222.957.3,1.285a2.02,2.02,0,0,0,.126.432,2.05,2.05,0,0,0-.052-.448c-.058-.331-.133-.76-.226-1.3-.224-1.187-.538-2.856-.938-4.982-.855-4.369-2.078-10.608-3.584-18.3-1.542-7.735-3.375-16.923-5.409-27.122-1.966-10.224-4.127-21.456-6.4-33.249a164.922,164.922,0,0,1-2.2-17.357,33.546,33.546,0,0,0-1.63-8.24c-.91-2.6-2.1-5-3.152-7.373-2.253-4.686-3.044-9.581-3.85-14.131-.775-4.56-1.521-8.818-2.41-12.661s-1.863-7.279-2.858-10.25c-.951-2.991-2.116-5.44-2.564-7.58-.426-2.143-.668-3.849-.886-4.984-.1-.539-.179-.966-.24-1.3A2.062,2.062,0,0,0,106.009,173.362Z" transform="translate(-106.004 -173.362)" fill="#263238"/>
          </g>
        </g>
      </g>
    </g>
    <g id="Group_1083" data-name="Group 1083" transform="translate(452.092 -52.963)">
      <path id="Path_1509" data-name="Path 1509" d="M459-35.263h-4.069a3.458,3.458,0,0,1-3.551,3.477,3.291,3.291,0,0,1-3.188-2.1,3.644,3.644,0,0,1,.29-3.3c.69-1.138,2.2-2.172,4.944-1.688v-9.174h-4.023v5.374a7.856,7.856,0,0,0-5.643,7.677c0,5.949,5.336,7.331,7.619,7.331C453.132-27.663,459.082-28.085,459-35.263Z" transform="translate(-443.766 53.748)" fill="#36b1ff"/>
      <rect id="Rectangle_103" data-name="Rectangle 103" width="4.083" height="3.813" transform="translate(9.677 3.813) rotate(180)" fill="#36b1ff"/>
    </g>
    <g id="Group_1089" data-name="Group 1089" transform="translate(429.799 -69.936)">
      <g id="Group_1088" data-name="Group 1088">
        <g id="Group_1087" data-name="Group 1087">
          <g id="Group_1086" data-name="Group 1086">
            <g id="Group_1085" data-name="Group 1085">
              <g id="Group_1084" data-name="Group 1084">
                <path id="Path_1510" data-name="Path 1510" d="M481.769-40.218a2.932,2.932,0,0,0,.008-.515c-.01-.373-.025-.874-.043-1.513-.015-.332-.015-.706-.049-1.115q-.087-.615-.188-1.335l-.224-1.558q-.2-.82-.431-1.741a28.167,28.167,0,0,0-3.677-8.434,30.264,30.264,0,0,0-8.5-8.723A30.533,30.533,0,0,0,454.792-70.1a30.712,30.712,0,0,0-4.078-.082c-.689.048-1.391.034-2.086.135l-2.1.316a29.912,29.912,0,0,0-8.3,2.835,31.926,31.926,0,0,0-7.459,5.421,31.315,31.315,0,0,0-5.611,7.81,28.382,28.382,0,0,0-2.922,9.521,18.753,18.753,0,0,0-.216,2.539,22.64,22.64,0,0,0-.047,2.567,30.51,30.51,0,0,0,.649,5.141,30.049,30.049,0,0,0,4.308,10.236l-.032-.311-4.184,10.426-.248.617.641-.177,11.147-3.064-.275-.053a29.91,29.91,0,0,0,12.736,5.564,27.1,27.1,0,0,0,6.525.4,20.959,20.959,0,0,0,3.135-.3l1.525-.237c.5-.093.987-.245,1.476-.365a29.809,29.809,0,0,0,16.958-11.632,28.519,28.519,0,0,0,3.652-6.922l.558-1.559q.2-.771.376-1.48t.335-1.354c.084-.435.128-.854.188-1.247.1-.788.236-1.481.267-2.088s.037-1.107.051-1.532c.009-.387.015-.7.02-.935a1.492,1.492,0,0,0-.01-.317,1.3,1.3,0,0,0-.044.316c-.018.239-.043.546-.074.932-.029.422-.062.928-.1,1.522s-.2,1.288-.315,2.069a29.586,29.586,0,0,1-5.222,12.367,29.523,29.523,0,0,1-16.77,11.34c-.481.113-.959.262-1.451.351l-1.5.225a20.347,20.347,0,0,1-3.077.276,26.572,26.572,0,0,1-6.4-.422,29.377,29.377,0,0,1-12.459-5.487l-.125-.094-.151.042-11.152,3.042.392.441q2.051-5.093,4.2-10.421l.066-.163-.1-.148a29.413,29.413,0,0,1-4.206-10.007,29.857,29.857,0,0,1-.637-5.025,22.574,22.574,0,0,1,.046-2.509,18.277,18.277,0,0,1,.21-2.484,27.741,27.741,0,0,1,2.847-9.31,30.713,30.713,0,0,1,5.475-7.65,31.4,31.4,0,0,1,7.289-5.325,29.363,29.363,0,0,1,8.121-2.8l2.057-.319c.682-.1,1.37-.09,2.046-.14a30.477,30.477,0,0,1,4,.063A30.146,30.146,0,0,1,468.4-64.754a30.09,30.09,0,0,1,8.443,8.531,28.349,28.349,0,0,1,3.741,8.3q.242.909.458,1.718.135.823.253,1.541c.078.475.151.917.218,1.323.045.406.055.777.082,1.107.046.635.083,1.133.109,1.5A2.818,2.818,0,0,0,481.769-40.218Z" transform="translate(-421.954 70.231)" fill="#263238"/>
              </g>
            </g>
          </g>
        </g>
      </g>
    </g>
    <path id="Path_1511" data-name="Path 1511" d="M182.269,79.461H241.3s0-49.561,51.5-50.448c26.749-.461,40.618,17.06,46.253,30.484,6.543,15.588,4.564,33.352-4.2,47.807-10.012,16.507-31.574,33.093-71.355,26.085L263.12,264.9h58.366V186.937s81.859-21.161,81.859-111.374c0-86.315-69.8-104.96-107.312-106.158-20.876-.667-28.442-1.564-54.258,2.1C208.874-23.824,181.573,14.377,182.269,79.461Z" transform="translate(2.556 1.157)" fill="#e8505b"/>
    <rect id="Rectangle_104" data-name="Rectangle 104" width="59.235" height="55.323" transform="translate(265.512 293.472)" fill="#e8505b"/>
    <rect id="Rectangle_105" data-name="Rectangle 105" width="59.235" height="55.323" transform="translate(265.512 293.472)" fill="#2f9ec9"/>
    <path id="Path_1512" data-name="Path 1512" d="M182.269,79.461H241.3s0-49.561,51.5-50.448c26.749-.461,40.618,17.06,46.253,30.484,6.543,15.588,4.564,33.352-4.2,47.807-10.012,16.507-31.574,33.093-71.355,26.085L263.12,264.9h58.366V186.937s81.859-21.161,81.859-111.374c0-86.315-69.8-104.96-107.312-106.158-20.876-.667-28.442-1.564-54.258,2.1C208.874-23.824,181.573,14.377,182.269,79.461Z" transform="translate(2.556 1.157)" fill="#2f9ec9"/>
    <path id="Path_1513" data-name="Path 1513" d="M158.346,79.452h59.028s0-49.561,51.5-50.448c26.749-.461,40.618,17.06,46.253,30.484,6.543,15.588,4.564,33.352-4.2,47.807-10.011,16.507-31.951,31.511-71.731,24.5V264.889h58.366V186.928s81.859-21.161,81.859-111.374c0-86.315-77.4-106.361-110.537-106.361C243.547-30.807,157.233-24.682,158.346,79.452Z" transform="translate(2.028 1.166)" fill="#e8505b"/>
    <path id="Path_1514" data-name="Path 1514" d="M158.346,79.452h59.028s0-49.561,51.5-50.448c26.749-.461,40.618,17.06,46.253,30.484,6.543,15.588,4.564,33.352-4.2,47.807-10.011,16.507-31.951,31.511-71.731,24.5V264.889h58.366V186.928s81.859-21.161,81.859-111.374c0-86.315-77.4-106.361-110.537-106.361C243.547-30.807,157.233-24.682,158.346,79.452Z" transform="translate(2.028 1.166)" fill="#23759e"/>
    <rect id="Rectangle_106" data-name="Rectangle 106" width="59.235" height="55.323" transform="translate(241.061 293.472)" fill="#e8505b"/>
    <rect id="Rectangle_107" data-name="Rectangle 107" width="59.235" height="55.323" transform="translate(241.061 293.472)" fill="#23759e"/>
    <g id="Group_1090" data-name="Group 1090" transform="translate(219.049 29.842)">
      <path id="Path_1515" data-name="Path 1515" d="M274.278,28a5.628,5.628,0,0,1-.882-.054c-.578-.03-1.418-.192-2.516-.2a51.345,51.345,0,0,0-9.255.384,66.3,66.3,0,0,0-13.361,3.142,57.118,57.118,0,0,0-7.445,3.2,39.576,39.576,0,0,0-7.28,4.715,36.079,36.079,0,0,0-5.959,6.3A58.157,58.157,0,0,0,217.827,64.9a51.122,51.122,0,0,0-1.775,9.09c-.126,1.09-.158,1.94-.189,2.517a5.5,5.5,0,0,1-.079.88,5.464,5.464,0,0,1-.029-.882c0-.58,0-1.435.09-2.533a47.4,47.4,0,0,1,1.62-9.175,58.669,58.669,0,0,1,5.22-12.8,59.716,59.716,0,0,1,4.481-6.845A36.264,36.264,0,0,1,233.2,38.77,39.617,39.617,0,0,1,240.579,34a56.379,56.379,0,0,1,7.523-3.2,64.65,64.65,0,0,1,13.477-3.053,47.673,47.673,0,0,1,9.314-.217,25.045,25.045,0,0,1,2.516.3A5.291,5.291,0,0,1,274.278,28Z" transform="translate(-215.754 -27.393)" fill="#263238"/>
    </g>
    <g id="Group_1091" data-name="Group 1091" transform="translate(266.856 -29.622)">
      <path id="Path_1516" data-name="Path 1516" d="M362.181,18.74a1.317,1.317,0,0,1-.191-.233l-.517-.71-1.942-2.757c-.426-.6-.87-1.279-1.406-1.988l-1.844-2.235-2.113-2.572c-.769-.891-1.665-1.76-2.559-2.714-.916-.932-1.826-1.959-2.864-2.938l-3.3-2.984c-.575-.509-1.138-1.054-1.751-1.56l-1.9-1.5c-1.3-1-2.586-2.089-3.991-3.095a127.777,127.777,0,0,0-19.341-11.423L313.076-20.4l-5.352-2.077c-1.741-.722-3.519-1.235-5.238-1.8-1.728-.537-3.392-1.158-5.079-1.551l-4.889-1.285c-1.584-.419-3.158-.668-4.661-1-1.512-.282-2.954-.658-4.371-.835l-4.065-.588c-2.583-.443-4.953-.53-7.022-.739-1.036-.082-2-.192-2.888-.234l-2.436-.065-3.371-.108-.878-.042a1.316,1.316,0,0,1-.3-.032,1.208,1.208,0,0,1,.3-.022l.877-.011,3.377.008,2.443.019c.891.027,1.857.123,2.9.191,2.075.18,4.455.242,7.048.662l4.082.556c1.425.166,2.873.532,4.392.806,1.51.32,3.092.561,4.683.974L297.54-26.3c1.694.388,3.366,1.007,5.1,1.54,1.727.564,3.514,1.075,5.262,1.8l5.376,2.077,5.41,2.444a125.588,125.588,0,0,1,19.4,11.507c1.407,1.015,2.7,2.117,4,3.127l1.9,1.514c.612.511,1.174,1.062,1.749,1.577L349.032,2.3c1.033.991,1.94,2.031,2.851,2.975.889.966,1.779,1.847,2.542,2.75l2.089,2.606,1.814,2.27c.526.721.96,1.415,1.373,2.021l1.863,2.818.473.74A1.166,1.166,0,0,1,362.181,18.74Z" transform="translate(-262.529 30.788)" fill="#263238"/>
    </g>
    <g id="Group_1092" data-name="Group 1092" transform="translate(299.831 146.636)">
      <path id="Path_1517" data-name="Path 1517" d="M355.321,141.665a3.976,3.976,0,0,1-.447.613l-1.361,1.694c-.59.737-1.327,1.626-2.228,2.618s-1.886,2.163-3.073,3.363c-1.163,1.223-2.446,2.555-3.893,3.916-1.407,1.4-3,2.8-4.667,4.29a139.564,139.564,0,0,1-11.468,8.908,139.472,139.472,0,0,1-12.407,7.552c-1.984,1.023-3.858,2.02-5.668,2.836-1.786.869-3.487,1.594-5.045,2.247-1.543.684-2.984,1.194-4.234,1.676s-2.341.863-3.239,1.152l-2.067.67a4.087,4.087,0,0,1-.732.2,4.043,4.043,0,0,1,.7-.3l2.031-.763c.886-.319,1.966-.719,3.2-1.234s2.664-1.041,4.195-1.746c1.543-.673,3.23-1.415,5-2.3,1.8-.832,3.656-1.839,5.626-2.871,3.9-2.139,8.1-4.657,12.337-7.558,4.217-2.928,8.062-5.958,11.448-8.841,1.665-1.475,3.268-2.855,4.683-4.239,1.455-1.341,2.749-2.654,3.927-3.857,1.2-1.179,2.208-2.323,3.122-3.3s1.679-1.839,2.292-2.554l1.436-1.627A4.125,4.125,0,0,1,355.321,141.665Z" transform="translate(-294.792 -141.665)" fill="#263238"/>
    </g>
    <g id="Group_1093" data-name="Group 1093" transform="translate(298.292 188.088)">
      <path id="Path_1518" data-name="Path 1518" d="M293.553,255.553c-.147,0-.267-16.416-.267-36.664s.12-36.668.267-36.668.266,16.413.266,36.668S293.7,255.553,293.553,255.553Z" transform="translate(-293.286 -182.222)" fill="#263238"/>
    </g>
    <g id="Group_1094" data-name="Group 1094" transform="translate(300.543 293.583)">
      <path id="Path_1519" data-name="Path 1519" d="M295.756,336.9c-.147,0-.267-11.521-.267-25.729s.12-25.732.267-25.732.266,11.519.266,25.732S295.9,336.9,295.756,336.9Z" transform="translate(-295.489 -285.439)" fill="#263238"/>
    </g>
    <path id="Path_1520" data-name="Path 1520" d="M352.6,69.628c-1.031,2.058,2.788,3.718,4.992,4.384a19.915,19.915,0,0,0,6.853.472c3.046-.165,6.2-.449,8.85-1.961a14.07,14.07,0,0,0,5.335-5.984,41.92,41.92,0,0,0,2.708-7.653S357.2,60.466,352.6,69.628Z" transform="translate(6.311 3.145)" fill="#e8505b"/>
    <g id="Group_1095" data-name="Group 1095" transform="translate(358.743 62.03)">
      <path id="Path_1521" data-name="Path 1521" d="M352.6,69.628c-1.031,2.058,2.788,3.718,4.992,4.384a19.915,19.915,0,0,0,6.853.472c3.046-.165,6.2-.449,8.85-1.961a14.07,14.07,0,0,0,5.335-5.984,41.92,41.92,0,0,0,2.708-7.653S357.2,60.466,352.6,69.628Z" transform="translate(-352.432 -58.885)" fill="#2886b5"/>
    </g>
    <g id="Group_1097" data-name="Group 1097" transform="translate(425.556 59.13)">
      <path id="Path_1522" data-name="Path 1522" d="M419.379,63.146a23.152,23.152,0,0,0,13.631,4.279c2.319-.028,4.778-.475,6.49-2.041.788-.72,1.376-1.64,2.187-2.334.551-.47,1.2-.827,1.713-1.334a2.185,2.185,0,0,0,.752-1.939,4.037,4.037,0,0,0-1.411-2.257c-2.773-1.574-6.082-1.518-9.27-1.444a31.76,31.76,0,0,0-9.352,1.834c-2.471.832-5.062,2.005-6.316,4.293" transform="translate(-417.803 -56.047)" fill="#2886b5"/>
      <g id="Group_1096" data-name="Group 1096" transform="translate(0 0.014)" opacity="0.4">
        <path id="Path_1523" data-name="Path 1523" d="M444.153,59.777a4.272,4.272,0,0,0-1.812-2.054c-2.774-1.573-5.682-1.72-8.87-1.647a31.76,31.76,0,0,0-9.352,1.834c-2.471.832-5.062,2.005-6.316,4.293l1.576.943a23.152,23.152,0,0,0,13.631,4.279c2.319-.028,4.778-.475,6.49-2.041.788-.72,1.376-1.64,2.187-2.334.551-.47,1.2-.827,1.713-1.334A2.185,2.185,0,0,0,444.153,59.777Z" transform="translate(-417.803 -56.061)" fill="#2886b5"/>
      </g>
    </g>
    <path id="Path_1524" data-name="Path 1524" d="M373.779,100.815l50.951.666a.654.654,0,0,0,.632-.854l-5.977-18.642s.881-9.315,2.1-20.526c1.847-17.012,4.3-38.4,4.337-38.344-3.48-9.767-24.043-11.432-24.043-11.432L378.34,13.077l-.825-1.376-6.745,3.136a31.42,31.42,0,0,0-4.231,2.387c-4.45,2.981-15.189,9.811-17.145,17.433-4.525,17.622,3.14,37.3,3.14,37.3l4.919-3.845a34.765,34.765,0,0,1,3.9-2.61l9.874,26.456a4.665,4.665,0,0,0-2.141,3.4c-.087,2.145,1.062,4.728,4.689,5.463" transform="translate(6.212 2.103)" fill="#36b1ff"/>
    <g id="Group_1098" data-name="Group 1098" transform="translate(395.186 45.313)" opacity="0.3">
      <path id="Path_1525" data-name="Path 1525" d="M394.734,68.939c1.617-8.686.762-17.617-.1-26.41-2.829,7.193-2.726,15.3-5.719,22.426a9.6,9.6,0,0,0-.8,2.361,2.633,2.633,0,0,0,.681,2.3c.814.744,2.027.343,3.121.213a12,12,0,0,0,2.812-.894" transform="translate(-388.089 -42.529)"/>
    </g>
    <g id="Group_1099" data-name="Group 1099" transform="translate(382.38 85.366)" opacity="0.4">
      <path id="Path_1526" data-name="Path 1526" d="M376.245,88.183c4.114,1.426,8.439-1.22,12.768-1.689,2.86-.311,5.723.344,8.562.805a63.968,63.968,0,0,0,17.376.426,6.648,6.648,0,0,0,2.556-.659,3.085,3.085,0,0,0,1.337-2.537c-9.623-.987-19.245-1.577-28.867-2.564a18.15,18.15,0,0,0-7.218.23c-2.908.9-5.149,3.186-7.2,5.437" transform="translate(-375.559 -81.717)"/>
    </g>
    <path id="Path_1527" data-name="Path 1527" d="M442.8,57.165c-4.166-9.366-18.832-35.287-18.832-35.287l-11.359,14.24,2.651,27.955s6-6.7,22.768-6.828a8.218,8.218,0,0,1,6.242,3.287Z" transform="translate(7.639 2.328)" fill="#36b1ff"/>
    <g id="Group_1100" data-name="Group 1100" transform="translate(378.914 42.179)">
      <path id="Path_1528" data-name="Path 1528" d="M375.5,51.829a38.721,38.721,0,0,1-1.913-6.114,38.657,38.657,0,0,1-1.4-6.252,38.782,38.782,0,0,1,1.914,6.114A38.689,38.689,0,0,1,375.5,51.829Z" transform="translate(-372.167 -39.463)" fill="#263238"/>
    </g>
    <g id="Group_1101" data-name="Group 1101" transform="translate(419.385 36.55)">
      <path id="Path_1529" data-name="Path 1529" d="M411.768,33.957a6.865,6.865,0,0,1,1.051.893,28.637,28.637,0,0,1,2.531,2.781,26.83,26.83,0,0,1,5.423,11.1,20.769,20.769,0,0,1,.326,6.846c-.264,2.091-.664,3.93-.921,5.487s-.429,2.818-.511,3.7a9.354,9.354,0,0,1-.142,1.366,5.478,5.478,0,0,1-.064-1.379A32.568,32.568,0,0,1,419.806,61c.211-1.57.573-3.425.805-5.486a21.06,21.06,0,0,0-.359-6.678,28.082,28.082,0,0,0-5.2-10.978C413.162,35.344,411.689,34.035,411.768,33.957Z" transform="translate(-411.765 -33.955)" fill="#263238"/>
    </g>
    <g id="Group_1102" data-name="Group 1102" transform="translate(382.285 92.398)">
      <path id="Path_1530" data-name="Path 1530" d="M402.166,96.89a4.817,4.817,0,0,1-1.11.322,10.8,10.8,0,0,1-1.33.259,17.925,17.925,0,0,1-1.784.217,26.414,26.414,0,0,1-4.68-.026,27.8,27.8,0,0,1-10.9-3.383A26.416,26.416,0,0,1,378.5,91.65a17.6,17.6,0,0,1-1.347-1.19,10.682,10.682,0,0,1-.951-.966,4.752,4.752,0,0,1-.731-.893c.077-.074,1.173,1.153,3.261,2.753a29.4,29.4,0,0,0,3.874,2.494,29.4,29.4,0,0,0,10.711,3.325,29.271,29.271,0,0,0,4.6.139C400.545,97.175,402.145,96.786,402.166,96.89Z" transform="translate(-375.466 -88.598)" fill="#263238"/>
    </g>
    <g id="Group_1103" data-name="Group 1103" transform="translate(421.487 94.861)">
      <path id="Path_1531" data-name="Path 1531" d="M417.055,91.008a3.589,3.589,0,0,1,.392,1.491,9.192,9.192,0,0,1-.274,3.725,6.5,6.5,0,0,1-2,3.165,2.824,2.824,0,0,1-1.347.767c-.045-.077.452-.387,1.09-1.041a7.239,7.239,0,0,0,1.75-3.043C417.437,93.372,416.854,91.019,417.055,91.008Z" transform="translate(-413.821 -91.008)" fill="#263238"/>
    </g>
    <g id="Group_1104" data-name="Group 1104" transform="translate(419.752 98.461)">
      <path id="Path_1532" data-name="Path 1532" d="M414.321,94.53a5.561,5.561,0,0,1-2.188,5.642c-.113-.111.841-1.128,1.433-2.689C414.181,95.93,414.162,94.536,414.321,94.53Z" transform="translate(-412.124 -94.53)" fill="#263238"/>
    </g>
    <g id="Group_1105" data-name="Group 1105" transform="translate(409.199 64.823)">
      <path id="Path_1533" data-name="Path 1533" d="M405.426,61.626a20.965,20.965,0,0,1-1.818,2.615,20.659,20.659,0,0,1-1.788,2.638,6.53,6.53,0,0,1,1.349-2.938A6.525,6.525,0,0,1,405.426,61.626Z" transform="translate(-401.799 -61.618)" fill="#263238"/>
    </g>
    <g id="Group_1106" data-name="Group 1106" transform="translate(360.84 33.636)">
      <path id="Path_1534" data-name="Path 1534" d="M371.5,37.547a25.846,25.846,0,0,1-2.26-1.5,29.082,29.082,0,0,0-12.07-4.505,25.912,25.912,0,0,1-2.688-.351,9.494,9.494,0,0,1,2.729-.024,24.439,24.439,0,0,1,12.243,4.57A9.439,9.439,0,0,1,371.5,37.547Z" transform="translate(-354.484 -31.104)" fill="#263238"/>
    </g>
    <g id="Group_1107" data-name="Group 1107" transform="translate(422.556 23.861)">
      <path id="Path_1535" data-name="Path 1535" d="M423.922,21.546a44.187,44.187,0,0,0-5.164,4.831,44.318,44.318,0,0,0-3.881,5.914,6.285,6.285,0,0,1,.712-1.983,20.252,20.252,0,0,1,6.5-7.723A6.294,6.294,0,0,1,423.922,21.546Z" transform="translate(-414.868 -21.54)" fill="#263238"/>
    </g>
    <g id="Group_1108" data-name="Group 1108" transform="translate(381.02 15.444)">
      <path id="Path_1536" data-name="Path 1536" d="M403.778,13.305a1.989,1.989,0,0,1,.23.473,8.767,8.767,0,0,1,.476,1.433,12.128,12.128,0,0,1-.019,5.536A13.6,13.6,0,0,1,400.3,27.79a14.13,14.13,0,0,1-9.4,3.349,15.909,15.909,0,0,1-9.494-3.172,18.155,18.155,0,0,1-5.225-6.333,19.312,19.312,0,0,1-1.741-5.26,14.086,14.086,0,0,1-.184-1.5,1.962,1.962,0,0,1-.009-.525c.053-.006.116.714.4,1.98a20.959,20.959,0,0,0,1.871,5.129,18.208,18.208,0,0,0,5.183,6.111,15.6,15.6,0,0,0,9.2,3.033,13.779,13.779,0,0,0,9.079-3.186,13.422,13.422,0,0,0,4.126-6.763,12.558,12.558,0,0,0,.183-5.4C404.029,13.987,403.716,13.329,403.778,13.305Z" transform="translate(-374.228 -13.305)" fill="#263238"/>
    </g>
    <g id="Group_1109" data-name="Group 1109" transform="translate(409.222 65.17)" opacity="0.3">
      <path id="Path_1537" data-name="Path 1537" d="M406.744,63.431c-.015-.511-.082-1.112-.525-1.368a1,1,0,0,0-.926.015,2.617,2.617,0,0,0-.74.61,12.539,12.539,0,0,0-2.732,4.364l5.011-.431C406.8,65.565,406.777,64.487,406.744,63.431Z" transform="translate(-401.821 -61.957)"/>
    </g>
    <g id="Group_1110" data-name="Group 1110" transform="translate(427.145 48.34)" opacity="0.3">
      <path id="Path_1538" data-name="Path 1538" d="M422.988,53.254a16.4,16.4,0,0,0-3.631-7.763c2.158,7.074,1.435,11.064.222,15.907l.262-.677C421.232,57.891,423.373,56.119,422.988,53.254Z" transform="translate(-419.357 -45.491)"/>
    </g>
    <g id="Group_1111" data-name="Group 1111" transform="translate(394.642 291.642)">
      <path id="Path_1539" data-name="Path 1539" d="M413.683,285.591l-3.057,45.843-19.931-.234-3.139-47.66Z" transform="translate(-387.556 -283.54)" fill="#ffbe9d"/>
    </g>
    <g id="Group_1113" data-name="Group 1113" transform="translate(396.365 333.027)">
      <g id="Group_1112" data-name="Group 1112">
        <path id="Path_1540" data-name="Path 1540" d="M411.158,324.507l0,1.326s22.466,9.041,22.7,13.305l-44.622-.261.694-14.845C396.552,327.143,403.494,327.531,411.158,324.507Z" transform="translate(-389.242 -324.032)" fill="#36b1ff"/>
      </g>
    </g>
    <g id="Group_1116" data-name="Group 1116" transform="translate(400.24 337.728)">
      <g id="Group_1115" data-name="Group 1115">
        <g id="Group_1114" data-name="Group 1114">
          <path id="Path_1541" data-name="Path 1541" d="M394.342,328.7a1.822,1.822,0,0,0-1.272,2.072,1.753,1.753,0,0,0,2.043,1.28,1.922,1.922,0,0,0,1.336-2.2,1.818,1.818,0,0,0-2.272-1.1" transform="translate(-393.033 -328.631)" fill="#fff"/>
        </g>
      </g>
    </g>
    <g id="Group_1118" data-name="Group 1118" transform="translate(396.364 344.302)">
      <g id="Group_1117" data-name="Group 1117">
        <path id="Path_1542" data-name="Path 1542" d="M389.241,338.634l.168-3.571,42.707,1.559s1.982.876,1.749,2.273Z" transform="translate(-389.241 -335.063)" fill="#263238"/>
      </g>
    </g>
    <g id="Group_1121" data-name="Group 1121" transform="translate(414.36 334.748)">
      <g id="Group_1120" data-name="Group 1120">
        <g id="Group_1119" data-name="Group 1119">
          <path id="Path_1543" data-name="Path 1543" d="M410.929,325.921c-.008.218-1.1.31-2.175,1-1.095.665-1.653,1.607-1.852,1.519-.2-.044.132-1.344,1.449-2.162S410.978,325.721,410.929,325.921Z" transform="translate(-406.848 -325.715)" fill="#263238"/>
        </g>
      </g>
    </g>
    <g id="Group_1124" data-name="Group 1124" transform="translate(420.135 336.827)">
      <g id="Group_1123" data-name="Group 1123">
        <g id="Group_1122" data-name="Group 1122">
          <path id="Path_1544" data-name="Path 1544" d="M415.473,327.839c.049.212-.9.577-1.642,1.494-.773.9-.965,1.891-1.182,1.88-.205.034-.349-1.244.6-2.366S415.47,327.631,415.473,327.839Z" transform="translate(-412.498 -327.749)" fill="#263238"/>
        </g>
      </g>
    </g>
    <g id="Group_1127" data-name="Group 1127" transform="translate(425.479 338.783)">
      <g id="Group_1126" data-name="Group 1126">
        <g id="Group_1125" data-name="Group 1125">
          <path id="Path_1545" data-name="Path 1545" d="M417.984,333.414c-.2.046-.495-1.045.072-2.235s1.588-1.659,1.679-1.477c.122.18-.544.817-.993,1.8C418.268,332.476,418.2,333.395,417.984,333.414Z" transform="translate(-417.727 -329.664)" fill="#263238"/>
        </g>
      </g>
    </g>
    <g id="Group_1234" data-name="Group 1234" transform="translate(364.813 -51.642)">
      <path id="Path_1546" data-name="Path 1546" d="M410.531-42.241c1.15-2.866-.244-6.333-2.732-8.162a11.865,11.865,0,0,0-8.854-1.741,35.222,35.222,0,0,0-8.73,3.016,10.077,10.077,0,0,0-10.046-2.417,10.075,10.075,0,0,0-6.683,7.88,6.4,6.4,0,0,0-6.191,1.875,6.4,6.4,0,0,0-1.231,6.351l13.814,4.853,15.089,26.54a12.487,12.487,0,0,0,15.928-.225,12.487,12.487,0,0,0,1.835-15.824,10.374,10.374,0,0,0,2.12-2.622,10.575,10.575,0,0,0,4.882-6.539C421.044-35.09,416.47-41.545,410.531-42.241Z" transform="translate(-358.21 52.333)" fill="#263238"/>
      <g id="Group_1228" data-name="Group 1228" transform="translate(0 7.193)">
        <g id="Group_1205" data-name="Group 1205" transform="translate(9.075)">
          <g id="Group_1204" data-name="Group 1204">
            <g id="Group_1202" data-name="Group 1202" transform="translate(0 2.622)">
              <g id="Group_1201" data-name="Group 1201">
                <g id="Group_1200" data-name="Group 1200">
                  <g id="Group_1199" data-name="Group 1199">
                    <g id="Group_1184" data-name="Group 1184">
                      <g id="Group_1183" data-name="Group 1183">
                        <g id="Group_1182" data-name="Group 1182">
                          <g id="Group_1134" data-name="Group 1134">
                            <g id="Group_1133" data-name="Group 1133">
                              <g id="Group_1132" data-name="Group 1132">
                                <g id="Group_1131" data-name="Group 1131">
                                  <g id="Group_1130" data-name="Group 1130">
                                    <g id="Group_1129" data-name="Group 1129">
                                      <g id="Group_1128" data-name="Group 1128">
                                        <path id="Path_1547" data-name="Path 1547" d="M401.351,12.884c-.857-4.32-1.455-7.279-1.447-7.248,0,0,8.146-3.171,7.585-14.55-.28-5.658-2.439-14.579-4.44-21.821-1.8-6.519-7.879-13.706-14.316-11.629L369.27-32.858c-1.955.631-2.3,2.467-1.837,4.468l.032.977,7.574,31.333,3.2,14.005A11.831,11.831,0,0,0,391.443,26.9h0A11.833,11.833,0,0,0,401.351,12.884Z" transform="translate(-367.25 42.73)" fill="#ffbe9d"/>
                                      </g>
                                    </g>
                                  </g>
                                </g>
                              </g>
                            </g>
                          </g>
                          <g id="Group_1150" data-name="Group 1150" transform="translate(29.228 16.396)">
                            <g id="Group_1141" data-name="Group 1141" transform="translate(3.616 2.147)">
                              <g id="Group_1140" data-name="Group 1140">
                                <g id="Group_1139" data-name="Group 1139">
                                  <g id="Group_1138" data-name="Group 1138">
                                    <g id="Group_1137" data-name="Group 1137">
                                      <g id="Group_1136" data-name="Group 1136">
                                        <g id="Group_1135" data-name="Group 1135">
                                          <path id="Path_1548" data-name="Path 1548" d="M402.211-23.568a1.444,1.444,0,0,1-1.063,1.711,1.381,1.381,0,0,1-1.723-.968,1.443,1.443,0,0,1,1.061-1.711A1.382,1.382,0,0,1,402.211-23.568Z" transform="translate(-399.386 24.587)" fill="#263238"/>
                                        </g>
                                      </g>
                                    </g>
                                  </g>
                                </g>
                              </g>
                            </g>
                            <g id="Group_1149" data-name="Group 1149">
                              <g id="Group_1148" data-name="Group 1148">
                                <g id="Group_1147" data-name="Group 1147">
                                  <g id="Group_1146" data-name="Group 1146">
                                    <g id="Group_1145" data-name="Group 1145">
                                      <g id="Group_1144" data-name="Group 1144">
                                        <g id="Group_1143" data-name="Group 1143">
                                          <g id="Group_1142" data-name="Group 1142">
                                            <path id="Path_1549" data-name="Path 1549" d="M401.45-25.7c-.137.221-1.373-.346-2.891-.025-1.522.3-2.473,1.316-2.677,1.165-.1-.065.01-.435.421-.89a3.963,3.963,0,0,1,2.1-1.161,3.8,3.8,0,0,1,2.35.249C401.29-26.1,401.518-25.8,401.45-25.7Z" transform="translate(-395.847 26.688)" fill="#263238"/>
                                          </g>
                                        </g>
                                      </g>
                                    </g>
                                  </g>
                                </g>
                              </g>
                            </g>
                          </g>
                          <g id="Group_1166" data-name="Group 1166" transform="translate(14.533 19.999)">
                            <g id="Group_1157" data-name="Group 1157" transform="translate(3.522 1.935)">
                              <g id="Group_1156" data-name="Group 1156">
                                <g id="Group_1155" data-name="Group 1155">
                                  <g id="Group_1154" data-name="Group 1154">
                                    <g id="Group_1153" data-name="Group 1153">
                                      <g id="Group_1152" data-name="Group 1152">
                                        <g id="Group_1151" data-name="Group 1151">
                                          <path id="Path_1550" data-name="Path 1550" d="M387.741-20.25a1.442,1.442,0,0,1-1.063,1.71,1.38,1.38,0,0,1-1.723-.968,1.445,1.445,0,0,1,1.062-1.711A1.382,1.382,0,0,1,387.741-20.25Z" transform="translate(-384.916 21.27)" fill="#263238"/>
                                        </g>
                                      </g>
                                    </g>
                                  </g>
                                </g>
                              </g>
                            </g>
                            <g id="Group_1165" data-name="Group 1165">
                              <g id="Group_1164" data-name="Group 1164">
                                <g id="Group_1163" data-name="Group 1163">
                                  <g id="Group_1162" data-name="Group 1162">
                                    <g id="Group_1161" data-name="Group 1161">
                                      <g id="Group_1160" data-name="Group 1160">
                                        <g id="Group_1159" data-name="Group 1159">
                                          <g id="Group_1158" data-name="Group 1158">
                                            <path id="Path_1551" data-name="Path 1551" d="M387.072-22.172c-.137.221-1.374-.346-2.891-.024-1.522.3-2.473,1.316-2.677,1.164-.1-.065.008-.434.422-.89a3.956,3.956,0,0,1,2.094-1.161,3.8,3.8,0,0,1,2.35.249C386.911-22.572,387.14-22.273,387.072-22.172Z" transform="translate(-381.47 23.163)" fill="#263238"/>
                                          </g>
                                        </g>
                                      </g>
                                    </g>
                                  </g>
                                </g>
                              </g>
                            </g>
                          </g>
                          <g id="Group_1174" data-name="Group 1174" transform="translate(24.471 18.085)">
                            <g id="Group_1173" data-name="Group 1173">
                              <g id="Group_1172" data-name="Group 1172">
                                <g id="Group_1171" data-name="Group 1171">
                                  <g id="Group_1170" data-name="Group 1170">
                                    <g id="Group_1169" data-name="Group 1169">
                                      <g id="Group_1168" data-name="Group 1168">
                                        <g id="Group_1167" data-name="Group 1167">
                                          <path id="Path_1552" data-name="Path 1552" d="M394.554-12.518a10.3,10.3,0,0,1,2.375-.963c.379-.122.731-.276.74-.554a2.023,2.023,0,0,0-.5-1.1q-.843-1.292-1.768-2.714c-2.475-3.873-4.355-7.09-4.2-7.188s2.292,2.961,4.768,6.834q.9,1.435,1.722,2.742a2.292,2.292,0,0,1,.521,1.48,1,1,0,0,1-.519.7,2.664,2.664,0,0,1-.64.229A10.027,10.027,0,0,1,394.554-12.518Z" transform="translate(-391.193 25.035)" fill="#263238"/>
                                        </g>
                                      </g>
                                    </g>
                                  </g>
                                </g>
                              </g>
                            </g>
                          </g>
                          <g id="Group_1181" data-name="Group 1181" transform="translate(17.081 47.525)">
                            <g id="Group_1180" data-name="Group 1180" transform="translate(0 0)">
                              <g id="Group_1179" data-name="Group 1179">
                                <g id="Group_1178" data-name="Group 1178">
                                  <g id="Group_1177" data-name="Group 1177">
                                    <g id="Group_1176" data-name="Group 1176">
                                      <g id="Group_1175" data-name="Group 1175">
                                        <path id="Path_1553" data-name="Path 1553" d="M399.535,4.609a28.621,28.621,0,0,1-15.572-.84s5.35,6.992,16.155,3.65Z" transform="translate(-383.963 -3.769)" fill="#eb996e"/>
                                      </g>
                                    </g>
                                  </g>
                                </g>
                              </g>
                            </g>
                          </g>
                        </g>
                      </g>
                    </g>
                    <g id="Group_1191" data-name="Group 1191" transform="translate(13.47 17.982)">
                      <g id="Group_1190" data-name="Group 1190">
                        <g id="Group_1189" data-name="Group 1189">
                          <g id="Group_1188" data-name="Group 1188">
                            <g id="Group_1187" data-name="Group 1187">
                              <g id="Group_1186" data-name="Group 1186">
                                <g id="Group_1185" data-name="Group 1185">
                                  <path id="Path_1554" data-name="Path 1554" d="M387.382-24.295c-.1.437-1.664.426-3.445.865-1.791.4-3.185,1.11-3.47.762-.13-.167.077-.592.617-1.069a5.908,5.908,0,0,1,2.491-1.229,5.909,5.909,0,0,1,2.778-.011C387.049-24.791,387.423-24.5,387.382-24.295Z" transform="translate(-380.429 25.136)" fill="#263238"/>
                                </g>
                              </g>
                            </g>
                          </g>
                        </g>
                      </g>
                    </g>
                    <g id="Group_1198" data-name="Group 1198" transform="translate(28.067 11.518)">
                      <g id="Group_1197" data-name="Group 1197">
                        <g id="Group_1196" data-name="Group 1196">
                          <g id="Group_1195" data-name="Group 1195">
                            <g id="Group_1194" data-name="Group 1194">
                              <g id="Group_1193" data-name="Group 1193">
                                <g id="Group_1192" data-name="Group 1192">
                                  <path id="Path_1555" data-name="Path 1555" d="M400.9-30.425c-.243.411-1.558.313-3.05.608-1.5.251-2.7.809-3.068.509-.164-.149-.038-.536.445-.978a4.912,4.912,0,0,1,2.356-1.085,4.82,4.82,0,0,1,2.574.185C400.754-30.942,401-30.623,400.9-30.425Z" transform="translate(-394.712 31.461)" fill="#263238"/>
                                </g>
                              </g>
                            </g>
                          </g>
                        </g>
                      </g>
                    </g>
                  </g>
                </g>
              </g>
            </g>
            <g id="Group_1203" data-name="Group 1203" transform="translate(6.215)">
              <path id="Path_1556" data-name="Path 1556" d="M373.923-40.123a7.812,7.812,0,0,0,3.9,5.248,7.807,7.807,0,0,0,6.532.35c1.62-.656,3.288-1.89,4.93-1.3,1.728.626,2.271,2.922,3.875,3.82,2.291,1.283,5.052-.94,7.669-.721,2.022.17,3.588,1.743,5.171,3.011s3.78,2.331,5.566,1.372a22.776,22.776,0,0,0-1.81-4.923,7.672,7.672,0,0,0-3.743-3.54,28.2,28.2,0,0,1-2.729-.912c-1.845-.947-2.672-3.093-4.018-4.671a8.431,8.431,0,0,0-7.159-2.869c-2.214.228-4.311,1.341-6.534,1.247-1.643-.069-3.217-.8-4.862-.773-3.2.053-5.608,2.859-7.384,5.523" transform="translate(-373.331 45.296)" fill="#263238"/>
            </g>
          </g>
        </g>
        <path id="Path_1557" data-name="Path 1557" d="M385.023-37.851c-1.464-.108-4.475-.417-5.464-1.461a8.619,8.619,0,0,0-8.219-2.7,7.116,7.116,0,0,0-5.131,6.808,10.233,10.233,0,0,0-7.46,7.33A11.861,11.861,0,0,0,361.3-17.133a21.184,21.184,0,0,1,1.678,2.428,17.45,17.45,0,0,0-1.819,2.758c-2.334,5.171,4.005,7.151,4.005,7.151.017,3.476,3.22,3.46,5.276,3.449,1.977-.01,3.193,5.47,4.792,5.256l-1.625-16.926a2.113,2.113,0,0,0,.749.135c3.875.07,2.864-7.26,1.609-9.157a21.905,21.905,0,0,0,2.9-4.675,15.855,15.855,0,0,0,.151-7.836C380.372-34.748,385.665-37.8,385.023-37.851Z" transform="translate(-358.371 45.363)" fill="#263238"/>
        <g id="Group_1227" data-name="Group 1227" transform="translate(9.345 30.716)">
          <g id="Group_1215" data-name="Group 1215" transform="translate(0 0)">
            <g id="Group_1214" data-name="Group 1214">
              <g id="Group_1213" data-name="Group 1213">
                <g id="Group_1212" data-name="Group 1212">
                  <g id="Group_1211" data-name="Group 1211">
                    <g id="Group_1210" data-name="Group 1210">
                      <g id="Group_1209" data-name="Group 1209">
                        <g id="Group_1208" data-name="Group 1208">
                          <g id="Group_1207" data-name="Group 1207">
                            <g id="Group_1206" data-name="Group 1206">
                              <path id="Path_1558" data-name="Path 1558" d="M373.986-12.715a3.281,3.281,0,0,0-5.269-1.759c-.982.877-1.566,2.35-.947,4.817,1.651,6.58,7.915,3.566,7.879,3.374C375.627-6.4,374.693-10,373.986-12.715Z" transform="translate(-367.515 15.243)" fill="#ffbe9d"/>
                            </g>
                          </g>
                        </g>
                      </g>
                    </g>
                  </g>
                </g>
              </g>
            </g>
          </g>
          <g id="Group_1226" data-name="Group 1226" transform="translate(1.823 2.046)">
            <g id="Group_1225" data-name="Group 1225">
              <g id="Group_1224" data-name="Group 1224">
                <g id="Group_1223" data-name="Group 1223">
                  <g id="Group_1222" data-name="Group 1222">
                    <g id="Group_1221" data-name="Group 1221">
                      <g id="Group_1220" data-name="Group 1220">
                        <g id="Group_1219" data-name="Group 1219">
                          <g id="Group_1218" data-name="Group 1218">
                            <g id="Group_1217" data-name="Group 1217">
                              <g id="Group_1216" data-name="Group 1216">
                                <path id="Path_1559" data-name="Path 1559" d="M372.974-8.316c-.034-.014-.094.108-.266.246a1.178,1.178,0,0,1-.852.232c-.758-.081-1.621-1.037-1.95-2.215a3.907,3.907,0,0,1-.091-1.722,1.362,1.362,0,0,1,.642-1.1.6.6,0,0,1,.755.144c.134.163.125.3.163.307.022.012.113-.145-.007-.4A.756.756,0,0,0,371-13.17a.889.889,0,0,0-.676-.008,1.658,1.658,0,0,0-.941,1.319,4.015,4.015,0,0,0,.062,1.934c.375,1.315,1.364,2.386,2.384,2.422a1.267,1.267,0,0,0,1-.437C373-8.154,373-8.31,372.974-8.316Z" transform="translate(-369.298 13.241)" fill="#eb996e"/>
                              </g>
                            </g>
                          </g>
                        </g>
                      </g>
                    </g>
                  </g>
                </g>
              </g>
            </g>
          </g>
        </g>
      </g>
      <g id="Group_1229" data-name="Group 1229" transform="translate(19.499 11.48)">
        <path id="Path_1560" data-name="Path 1560" d="M409.058-21.336c-.041-.049.595-.459,1.435-1.485a9.679,9.679,0,0,0,2.054-5.112,9.413,9.413,0,0,0-.367-3.79,8.136,8.136,0,0,0-2.336-3.63,9.607,9.607,0,0,0-9.395-1.829c-.308.1-.593.253-.884.373-.279.147-.543.311-.8.458l-.406.227-.005-.45a3.324,3.324,0,0,0-.827-2.148,5.28,5.28,0,0,0-1.888-1.349,6.981,6.981,0,0,0-4.388-.321c-2.821.641-5.214,1.931-7.473,2.19a7.222,7.222,0,0,1-5.1-1.025,4.142,4.142,0,0,1-1-1.022,1.772,1.772,0,0,1-.227-.442,5.877,5.877,0,0,0,1.339,1.3,7.2,7.2,0,0,0,4.937.829,17.754,17.754,0,0,0,3.432-.991,31.138,31.138,0,0,1,3.99-1.307,8.845,8.845,0,0,1,2.31-.231,7.121,7.121,0,0,1,2.381.548,5.787,5.787,0,0,1,2.083,1.481,3.846,3.846,0,0,1,.959,2.49l-.411-.223c.277-.157.559-.333.857-.489.311-.13.615-.292.942-.4a10.04,10.04,0,0,1,9.9,1.966,8.515,8.515,0,0,1,2.43,3.864,9.675,9.675,0,0,1,.319,3.962,9.564,9.564,0,0,1-2.27,5.2,6.794,6.794,0,0,1-1.14,1.058A2.036,2.036,0,0,1,409.058-21.336Z" transform="translate(-377.449 41.101)" fill="#455a64"/>
      </g>
      <g id="Group_1230" data-name="Group 1230" transform="translate(20.31 4.279)">
        <path id="Path_1561" data-name="Path 1561" d="M407.7-44.285a7.284,7.284,0,0,0-2.118-.728,5.6,5.6,0,0,0-2.515.228,4.965,4.965,0,0,0-2.59,1.884l-.25.361-.153-.409a7.691,7.691,0,0,0-6.235-4.63c-2.249-.258-4.293.754-5.993,1.732a26.494,26.494,0,0,1-4.75,2.458,7.475,7.475,0,0,1-3.6.423,4.532,4.532,0,0,1-.955-.263c-.207-.09-.312-.145-.3-.161.016-.048.456.135,1.285.219a7.836,7.836,0,0,0,3.442-.571,28.7,28.7,0,0,0,4.631-2.528,16.173,16.173,0,0,1,2.864-1.4,7.781,7.781,0,0,1,3.432-.439,8.059,8.059,0,0,1,6.608,4.994l-.4-.047a5.286,5.286,0,0,1,2.859-1.983,5.649,5.649,0,0,1,2.671-.134,4.8,4.8,0,0,1,1.6.612C407.562-44.445,407.716-44.3,407.7-44.285Z" transform="translate(-378.243 48.146)" fill="#455a64"/>
      </g>
      <path id="Path_1562" data-name="Path 1562" d="M393.986-9.82a2.222,2.222,0,0,0-1.8-.52,2.626,2.626,0,0,0-1.722,1.257c-.01.012-.017.025-.027.038-.016.03-.042.054-.056.084l.025-.017a1.264,1.264,0,0,0-.192.773,1.86,1.86,0,0,0,1.067,1.382,2.35,2.35,0,0,0,2.678-.388A1.917,1.917,0,0,0,393.986-9.82Z" transform="translate(-357.669 53.259)" fill="#e8505b"/>
      <g id="Group_1231" data-name="Group 1231" transform="translate(32.207 43.86)">
        <path id="Path_1563" data-name="Path 1563" d="M394.5-6.661c-.08.015-.179-.3-.451-.732a3.393,3.393,0,0,0-1.424-1.272,3.393,3.393,0,0,0-1.894-.236c-.5.076-.807.211-.848.14-.037-.053.214-.317.757-.506a3.049,3.049,0,0,1,2.206.118,3.052,3.052,0,0,1,1.537,1.585C394.6-7.031,394.568-6.67,394.5-6.661Z" transform="translate(-389.884 9.42)" fill="#263238"/>
      </g>
      <g id="Group_1232" data-name="Group 1232" transform="translate(12.005 46.338)">
        <path id="Path_1564" data-name="Path 1564" d="M374.079-5.452c.05-.032.293.512-.09,1.287a2.084,2.084,0,0,1-1.091.984,2.043,2.043,0,0,1-1.8-.214,2.044,2.044,0,0,1-.972-1.533,2.08,2.08,0,0,1,.417-1.408c.534-.681,1.128-.7,1.121-.638.035.081-.449.232-.808.847a1.839,1.839,0,0,0-.242,1.146,1.627,1.627,0,0,0,.769,1.136,1.63,1.63,0,0,0,1.355.2,1.842,1.842,0,0,0,.928-.713C374.063-4.947,373.992-5.448,374.079-5.452Z" transform="translate(-370.118 6.995)" fill="#e8505b"/>
      </g>
      <g id="Group_1233" data-name="Group 1233" transform="translate(10.187 45.581)">
        <path id="Path_1565" data-name="Path 1565" d="M370.667-5.829c.057.027-.031.349-.475.566a1.3,1.3,0,0,1-.849.083,1.326,1.326,0,0,1-.836-.664,1.333,1.333,0,0,1-.1-1.064,1.3,1.3,0,0,1,.535-.665c.425-.253.743-.15.733-.088.006.079-.25.132-.5.387a.969.969,0,0,0-.2,1.176.971.971,0,0,0,1.093.48C370.42-5.691,370.6-5.877,370.667-5.829Z" transform="translate(-368.339 7.736)" fill="#e8505b"/>
      </g>
    </g>
    <g id="Group_1243" data-name="Group 1243" transform="translate(365.729 1.255)">
      <path id="Path_1566" data-name="Path 1566" d="M381.617,83.526s25.305,1.467,40.262,1.6c11.587.106,16.751-2.971,19.067-10.415,1.945-6.25-2.234-18.235-2.234-18.235-7.833.039-12.669,1.119-17.71,3.482l1.343,5.48-40.8,3.518Z" transform="translate(-358.775 1.837)" fill="#ffbe9d"/>
      <g id="Group_1235" data-name="Group 1235" transform="translate(63.33 67.125)">
        <path id="Path_1567" data-name="Path 1567" d="M429.975,71.1a20.1,20.1,0,0,0-3.82-3.791,20.121,20.121,0,0,0-4.924-2.171,3.619,3.619,0,0,1,1.623.142,10.821,10.821,0,0,1,6.4,4.361A3.62,3.62,0,0,1,429.975,71.1Z" transform="translate(-421.23 -65.097)" fill="#eb996e"/>
      </g>
      <g id="Group_1242" data-name="Group 1242" transform="translate(0 0)">
        <path id="Path_1568" data-name="Path 1568" d="M372.841,60.608h0s-7.828,1.877-13.574,5.721l6.112,16.622c2.042,5.455,8.3,8.136,13.251,5.306,7.7-4.4,10.41-17.236,10.41-17.236l8.46-36.67-14.013-8.78L372.841,60.608" transform="translate(-359.267 1.155)" fill="#ffbe9d"/>
        <g id="Group_1241" data-name="Group 1241" transform="translate(11.187)">
          <path id="Path_1569" data-name="Path 1569" d="M383.022,26.143l.565-12.06L380.459,1.868c-.174-.677-.26-1.521.289-1.933a1.487,1.487,0,0,1,1.889.06c.856.875,4.943,11.6,4.943,11.6s6.2-3.726,7.308-3.908,2.487,3.155,2.573,3.419a19.461,19.461,0,0,1,.011,2.242s3.835.114,4.178.64a13.167,13.167,0,0,1,.443,3.253s1.621.52,1.883,1.751.783,3.251.018,3.7-2.378,1.332-2.378,1.332-.65,6.257-.818,6.826-3.762,4.073-3.762,4.073Z" transform="translate(-369.99 0.583)" fill="#ffbe9d"/>
          <g id="Group_1236" data-name="Group 1236">
            <path id="Path_1570" data-name="Path 1570" d="M370.213,89.086c.016-.035.381.218,1.174.475a8.008,8.008,0,0,0,3.612.285,10.059,10.059,0,0,0,5.231-2.412,24.194,24.194,0,0,0,4.864-6.157,27.726,27.726,0,0,0,1.894-4.222,43.24,43.24,0,0,0,1.311-4.9c.8-3.444,1.666-7.152,2.585-11.092,1.845-7.885,3.906-16.7,6.128-26.192l.016-.072.053-.051c.7-.691,1.41-1.4,2.111-2.131.349-.366.7-.737,1.031-1.118a6.769,6.769,0,0,0,.463-.576c.121-.124.124-.37.172-.632.277-2.045.493-4.16.72-6.29l.014-.135.12-.066,1.948-1.093c.148-.088.367-.194.459-.268a.572.572,0,0,0,.184-.342,3.263,3.263,0,0,0,.012-1.059,15.864,15.864,0,0,0-.454-2.222,2.74,2.74,0,0,0-1.627-1.313l-.177-.064-.007-.178c-.026-.593-.065-1.2-.132-1.808-.035-.3-.074-.607-.136-.9a1.828,1.828,0,0,0-.118-.378c-.032-.067-.017-.017-.063-.06a1.025,1.025,0,0,0-.172-.072,17.974,17.974,0,0,0-3.743-.422l-.267-.013.008-.263c.019-.632.046-1.335.017-2a2.119,2.119,0,0,0-.238-.685c-.11-.247-.228-.49-.351-.729a8.77,8.77,0,0,0-.836-1.35,2.262,2.262,0,0,0-.519-.51.5.5,0,0,0-.544-.061,13.238,13.238,0,0,0-1.441.659c-1.908.993-3.761,2.077-5.578,3.156l-.267.158-.115-.286q-1.449-3.63-2.862-7.166-.7-1.766-1.4-3.507a1.455,1.455,0,0,0-1.123-1.052,1.136,1.136,0,0,0-1.33.488,1.2,1.2,0,0,0-.156.728c.031.228.143.572.21.852l.462,1.76q.461,1.752.913,3.473.9,3.442,1.771,6.748l.01.036,0,.037c-.2,4.2-.4,8.225-.585,12.059v.029l-.008.026-9.311,30.3c-1.127,3.62-2.015,6.468-2.628,8.433q-.455,1.429-.706,2.212c-.164.5-.265.751-.265.751s.057-.266.2-.771q.228-.79.644-2.231c.586-1.974,1.434-4.832,2.512-8.468,2.2-7.32,5.343-17.764,9.131-30.354l-.009.054c.174-3.836.357-7.864.547-12.061l.007.073q-.875-3.3-1.787-6.744-.455-1.719-.92-3.471-.231-.877-.466-1.76c-.074-.313-.166-.549-.224-.926A1.7,1.7,0,0,1,380.4.208a1.588,1.588,0,0,1,.828-.7,1.971,1.971,0,0,1,1.057-.033,2.1,2.1,0,0,1,.936.476,2.054,2.054,0,0,1,.55.881l1.405,3.507q1.414,3.532,2.869,7.164l-.381-.128c1.826-1.086,3.676-2.171,5.608-3.177a13.394,13.394,0,0,1,1.517-.692,1.172,1.172,0,0,1,.514-.074,1.139,1.139,0,0,1,.485.193,2.782,2.782,0,0,1,.647.627,9.286,9.286,0,0,1,.892,1.436c.128.248.249.5.363.755a2.505,2.505,0,0,1,.283.867c.032.725,0,1.405-.016,2.052l-.258-.276a18.151,18.151,0,0,1,3.9.453,1.538,1.538,0,0,1,.264.114.664.664,0,0,1,.264.268,2.231,2.231,0,0,1,.169.517c.068.324.108.638.144.952.068.627.108,1.238.134,1.847L402.4,17a3.23,3.23,0,0,1,1.953,1.615,15.412,15.412,0,0,1,.49,2.365,3.745,3.745,0,0,1-.025,1.242,1.086,1.086,0,0,1-.371.632,5.221,5.221,0,0,1-.521.31l-1.958,1.095.134-.2c-.23,2.136-.447,4.24-.73,6.311l-.065.4a1.03,1.03,0,0,1-.189.446,7.481,7.481,0,0,1-.5.628c-.344.391-.7.765-1.049,1.133-.708.735-1.418,1.445-2.127,2.139l.069-.123c-2.249,9.487-4.336,18.295-6.2,26.175-.936,3.936-1.817,7.64-2.636,11.08a43.274,43.274,0,0,1-1.351,4.928,27.827,27.827,0,0,1-1.946,4.261,24.266,24.266,0,0,1-4.975,6.187,10.178,10.178,0,0,1-5.37,2.4,7.859,7.859,0,0,1-3.662-.371,5.317,5.317,0,0,1-.869-.393A1.747,1.747,0,0,1,370.213,89.086Z" transform="translate(-370.213 0.578)" fill="#eb996e"/>
          </g>
          <g id="Group_1237" data-name="Group 1237" transform="translate(22.188 13.621)">
            <path id="Path_1571" data-name="Path 1571" d="M397.214,13.042c0,.075-.346.113-.886.139a10.152,10.152,0,0,0-2.036.241,4.024,4.024,0,0,0-1.734.926c-.374.349-.538.645-.612.613s-.019-.392.331-.864a3.441,3.441,0,0,1,1.882-1.192,5.937,5.937,0,0,1,2.184-.1C396.889,12.877,397.218,12.971,397.214,13.042Z" transform="translate(-391.922 -12.749)" fill="#eb996e"/>
          </g>
          <g id="Group_1238" data-name="Group 1238" transform="translate(24.372 12.795)">
            <path id="Path_1572" data-name="Path 1572" d="M394.168,13.172c-.138-.051-.146-.367-.02-.705s.341-.57.478-.518.147.367.02.705S394.306,13.224,394.168,13.172Z" transform="translate(-394.059 -11.941)" fill="#eb996e"/>
          </g>
          <g id="Group_1239" data-name="Group 1239" transform="translate(27.11 17.576)">
            <path id="Path_1573" data-name="Path 1573" d="M401.9,16.78a9.578,9.578,0,0,1-3.034.419,2.077,2.077,0,0,0-1.688.813c-.27.418-.18.765-.258.787-.049.046-.326-.345-.079-.956a1.665,1.665,0,0,1,.731-.812,3.224,3.224,0,0,1,1.23-.361A8.589,8.589,0,0,1,401.9,16.78Z" transform="translate(-396.738 -16.619)" fill="#eb996e"/>
          </g>
          <g id="Group_1240" data-name="Group 1240" transform="translate(31.236 21.414)">
            <path id="Path_1574" data-name="Path 1574" d="M401.127,20.374c.146.007.232.762.19,1.687s-.194,1.671-.341,1.664-.232-.761-.19-1.687S400.979,20.368,401.127,20.374Z" transform="translate(-400.774 -20.374)" fill="#eb996e"/>
          </g>
        </g>
      </g>
    </g>
    <g id="Group_1245" data-name="Group 1245" transform="translate(412.753 44.319)">
      <path id="Path_1575" data-name="Path 1575" d="M405.276,47.435l.909-3.133a.855.855,0,0,1,1.433-.361l1.186,1.209.74-2.947a.857.857,0,0,1,1.6-.161l1.672,3.489Z" transform="translate(-405.276 -41.557)" fill="#fff"/>
      <g id="Group_1244" data-name="Group 1244" transform="translate(0.211 5.281)">
        <path id="Path_1576" data-name="Path 1576" d="M412.83,46.76a13.688,13.688,0,0,1-3.609,1.167,13.722,13.722,0,0,1-3.738.652,27.028,27.028,0,0,1,7.347-1.819Z" transform="translate(-405.482 -46.723)" fill="#fff"/>
      </g>
    </g>
    <g id="Group_1246" data-name="Group 1246" transform="translate(356.793 32.164)">
      <path id="Path_1577" data-name="Path 1577" d="M353.263,29.664c.023.021-.38.393-.909,1.215a10.391,10.391,0,0,0-1.386,3.859,27.882,27.882,0,0,0-.184,6.123c.112,2.313.3,4.853.583,7.51a131.558,131.558,0,0,0,2.157,13.513c.364,1.714.691,3.094.918,4.047.1.423.188.784.263,1.1.058.252.078.387.078.387s-.048-.128-.119-.376c-.087-.31-.186-.668-.3-1.089-.251-.947-.6-2.323-.984-4.035a120.208,120.208,0,0,1-2.222-13.522c-.282-2.661-.464-5.206-.566-7.523a27.309,27.309,0,0,1,.232-6.159,10.142,10.142,0,0,1,1.465-3.878A6.1,6.1,0,0,1,353.263,29.664Z" transform="translate(-350.524 -29.664)" fill="#fff"/>
    </g>
    <g id="Group_1247" data-name="Group 1247" transform="translate(359.532 18.268)">
      <path id="Path_1578" data-name="Path 1578" d="M374.712,16.069a1.217,1.217,0,0,1-.23.126l-.675.322c-.586.278-1.43.69-2.444,1.25a88.485,88.485,0,0,0-7.681,4.8c-2.917,2.006-5.5,3.9-7.394,5.252l-2.244,1.589-.617.421a1.165,1.165,0,0,1-.224.135,1.209,1.209,0,0,1,.2-.17l.595-.454q.926-.69,2.2-1.643c1.866-1.381,4.44-3.3,7.362-5.307a76.864,76.864,0,0,1,7.73-4.757c1.027-.545,1.884-.937,2.481-1.193l.692-.286A1.214,1.214,0,0,1,374.712,16.069Z" transform="translate(-353.204 -16.068)" fill="#fff"/>
    </g>
    <g id="Group_1248" data-name="Group 1248" transform="translate(410.825 16.614)">
      <path id="Path_1579" data-name="Path 1579" d="M422.348,22.753a.8.8,0,0,1-.172-.129l-.46-.4a18.147,18.147,0,0,0-1.79-1.335,36.285,36.285,0,0,0-6.571-3.325,66.414,66.414,0,0,0-7.005-2.331c-.911-.252-1.654-.439-2.167-.565l-.591-.151a.835.835,0,0,1-.2-.066.783.783,0,0,1,.212.025l.6.111c.52.1,1.269.267,2.188.5a56.948,56.948,0,0,1,7.046,2.278,33.389,33.389,0,0,1,6.576,3.4A12.983,12.983,0,0,1,422.348,22.753Z" transform="translate(-403.39 -14.45)" fill="#fff"/>
    </g>
    <g id="Group_1249" data-name="Group 1249" transform="translate(377.552 94.205)">
      <path id="Path_1580" data-name="Path 1580" d="M374.613,99.1a1.445,1.445,0,0,1-.4-.137,6.721,6.721,0,0,1-1.014-.543,4.925,4.925,0,0,1-2.223-3.01,5.888,5.888,0,0,1,.4-3.74,5.134,5.134,0,0,1,.591-.988,1.4,1.4,0,0,1,.285-.312,11.8,11.8,0,0,0-.738,1.36,6.042,6.042,0,0,0-.326,3.631,4.971,4.971,0,0,0,2.1,2.933C374.069,98.837,374.63,99.059,374.613,99.1Z" transform="translate(-370.835 -90.366)" fill="#fff"/>
    </g>
    <g id="Group_1250" data-name="Group 1250" transform="translate(378.063 91.869)">
      <path id="Path_1581" data-name="Path 1581" d="M371.348,88.08a4.51,4.51,0,0,1,.487,1.283,4.464,4.464,0,0,1,.281,1.343,8.872,8.872,0,0,1-.768-2.626Z" transform="translate(-371.335 -88.08)" fill="#fff"/>
    </g>
    <g id="Group_1304" data-name="Group 1304" transform="translate(366.509 102.919)">
      <g id="Group_1251" data-name="Group 1251">
        <path id="Path_1582" data-name="Path 1582" d="M385.416,316.995l31.177-.156-.565-107.786-.29-109.637-42.225-.524L365.922,113.2a51.394,51.394,0,0,0-5.84,18.547c-.53,4.952,3.181,21.1,4.477,25.215l11.622,36.857Z" transform="translate(-360.031 -98.891)" fill="#263238"/>
        <path id="Path_1583" data-name="Path 1583" d="M424.178,99.552l34.256,93.386a43.08,43.08,0,0,1-4.223,36.488l-39.773,77.63L392.075,279.08l33.278-69.545L396.016,162l4.937-62.354,13.818-.222Z" transform="translate(-359.324 -98.879)" fill="#263238"/>
      </g>
      <g id="Group_1252" data-name="Group 1252" transform="translate(52.852 31.958)">
        <path id="Path_1584" data-name="Path 1584" d="M411.749,130.159s.025.161.048.478c.021.34.051.807.088,1.407.067,1.263.165,3.083.289,5.414.229,4.728.557,11.526.963,19.916.387,8.417.848,18.428,1.36,29.542.249,5.56.512,11.4.784,17.445.2,3.024.106,6.108.142,9.234q.014,4.691.029,9.511c.043,25.686.082,48.936.11,65.793-.011,8.4-.021,15.205-.028,19.937-.015,2.334-.027,4.156-.035,5.42-.009.6-.016,1.069-.022,1.41-.007.317-.026.48-.026.48s-.018-.163-.029-.48l-.031-1.409c-.015-1.264-.037-3.087-.065-5.42-.034-4.732-.082-11.537-.141-19.935-.068-16.856-.163-40.1-.267-65.786q-.012-4.815-.026-9.51c-.035-3.125.057-6.209-.134-9.232-.261-6.05-.513-11.885-.753-17.445-.469-11.113-.891-21.124-1.246-29.541-.334-8.393-.605-15.193-.794-19.921-.081-2.333-.144-4.155-.188-5.418-.015-.6-.028-1.069-.036-1.409C411.738,130.323,411.749,130.159,411.749,130.159Z" transform="translate(-411.742 -130.159)" fill="#455a64"/>
      </g>
      <g id="Group_1253" data-name="Group 1253" transform="translate(52.054 2.514)">
        <path id="Path_1585" data-name="Path 1585" d="M410.986,101.351a3.9,3.9,0,0,1,.216,1.015c.106.658.233,1.613.369,2.794.274,2.365.56,5.642.725,9.271s.173,6.92.113,9.3c-.03,1.19-.07,2.151-.117,2.816a3.855,3.855,0,0,1-.124,1.03,31.752,31.752,0,0,1-.136-3.848c-.038-2.375-.106-5.654-.269-9.274s-.39-6.89-.567-9.259A31.4,31.4,0,0,1,410.986,101.351Z" transform="translate(-410.961 -101.351)" fill="#455a64"/>
      </g>
      <g id="Group_1254" data-name="Group 1254" transform="translate(44.078 4.349)">
        <path id="Path_1586" data-name="Path 1586" d="M404.287,103.416a2.5,2.5,0,0,0-.691,1.165,1.322,1.322,0,0,0,.4,1.245,1.36,1.36,0,0,0,2.323-1.063,1.323,1.323,0,0,0-.685-1.114,2.494,2.494,0,0,0-1.334-.238c-.014-.028.1-.135.362-.212a1.746,1.746,0,0,1,2.146,1.537,1.83,1.83,0,0,1-3.152,1.444,1.745,1.745,0,0,1,.237-2.63C404.121,103.4,404.276,103.387,404.287,103.416Z" transform="translate(-403.157 -103.146)" fill="#455a64"/>
      </g>
      <g id="Group_1255" data-name="Group 1255" transform="translate(12.486 2.767)">
        <path id="Path_1587" data-name="Path 1587" d="M388.613,101.6a3.083,3.083,0,0,1,.28.978,9.739,9.739,0,0,1,.091,2.778,11.177,11.177,0,0,1-1.18,3.959,10.479,10.479,0,0,1-7.986,5.734,11.185,11.185,0,0,1-4.13-.148,9.759,9.759,0,0,1-2.6-.974,3.1,3.1,0,0,1-.837-.578,17.779,17.779,0,0,0,3.515,1.184,10.73,10.73,0,0,0,12.847-9.223A17.7,17.7,0,0,0,388.613,101.6Z" transform="translate(-372.247 -101.598)" fill="#455a64"/>
      </g>
      <g id="Group_1256" data-name="Group 1256" transform="translate(60.669 2.68)">
        <path id="Path_1588" data-name="Path 1588" d="M427.676,110.548a4.146,4.146,0,0,1-1.963-.233,9.124,9.124,0,0,1-6.2-6.826,4.131,4.131,0,0,1-.042-1.976c.1,0,.1.75.408,1.891a9.887,9.887,0,0,0,5.95,6.556C426.938,110.375,427.686,110.453,427.676,110.548Z" transform="translate(-419.389 -101.513)" fill="#455a64"/>
      </g>
      <g id="Group_1257" data-name="Group 1257" transform="translate(68.292 109.322)">
        <path id="Path_1589" data-name="Path 1589" d="M439.687,208.925a6.447,6.447,0,0,1-1.806,1.438,8.374,8.374,0,0,1-2.326,1.016,5.615,5.615,0,0,1-3.138-.084,9.125,9.125,0,0,1-4.366-3.474,8.1,8.1,0,0,1-1.2-1.966,12.631,12.631,0,0,1,1.494,1.733,9.68,9.68,0,0,0,4.232,3.2,6.553,6.553,0,0,0,5.115-.752A21.42,21.42,0,0,1,439.687,208.925Z" transform="translate(-426.849 -205.853)" fill="#455a64"/>
      </g>
      <g id="Group_1258" data-name="Group 1258" transform="translate(67.301 109.894)">
        <path id="Path_1590" data-name="Path 1590" d="M431.906,214.879a25.506,25.506,0,0,1-3.227-4.078,25.589,25.589,0,0,1-2.793-4.386,50.875,50.875,0,0,1,6.02,8.464Z" transform="translate(-425.878 -206.412)" fill="#455a64"/>
      </g>
      <g id="Group_1259" data-name="Group 1259" transform="translate(19.766 32.753)">
        <path id="Path_1591" data-name="Path 1591" d="M380.552,133.767c-.137.054-.5-.535-.813-1.315s-.455-1.457-.318-1.512.5.534.812,1.314S380.688,133.712,380.552,133.767Z" transform="translate(-379.37 -130.936)" fill="#fafafa"/>
      </g>
      <g id="Group_1260" data-name="Group 1260" transform="translate(40.472 36.148)">
        <path id="Path_1592" data-name="Path 1592" d="M399.9,136.521c-.147,0-.267-.507-.267-1.131s.12-1.13.267-1.13.266.506.266,1.13S400.042,136.521,399.9,136.521Z" transform="translate(-399.629 -134.259)" fill="#fafafa"/>
      </g>
      <g id="Group_1261" data-name="Group 1261" transform="translate(32.228 46.328)">
        <path id="Path_1593" data-name="Path 1593" d="M391.941,147.046c-.147.009-.309-.615-.362-1.4s.023-1.422.17-1.432.309.614.362,1.4S392.087,147.036,391.941,147.046Z" transform="translate(-391.563 -144.219)" fill="#fafafa"/>
      </g>
      <g id="Group_1262" data-name="Group 1262" transform="translate(15.668 55.501)">
        <path id="Path_1594" data-name="Path 1594" d="M377.437,154.762c-.122.09-.544-.287-1.091-.68s-1.03-.685-.982-.828.676-.055,1.295.4S377.555,154.681,377.437,154.762Z" transform="translate(-375.361 -153.194)" fill="#fafafa"/>
      </g>
      <g id="Group_1263" data-name="Group 1263" transform="translate(43.9 65.349)">
        <path id="Path_1595" data-name="Path 1595" d="M403.025,164.538c-.122-.081.032-.527.344-1s.664-.782.787-.7-.032.527-.344,1S403.148,164.62,403.025,164.538Z" transform="translate(-402.983 -162.829)" fill="#fafafa"/>
      </g>
      <g id="Group_1264" data-name="Group 1264" transform="translate(27.467 66.115)">
        <path id="Path_1596" data-name="Path 1596" d="M387.172,167.349c-.147,0-.267-.844-.267-1.885s.12-1.886.267-1.886.266.844.266,1.886S387.318,167.349,387.172,167.349Z" transform="translate(-386.905 -163.579)" fill="#fafafa"/>
      </g>
      <g id="Group_1265" data-name="Group 1265" transform="translate(20.394 79.813)">
        <path id="Path_1597" data-name="Path 1597" d="M382.07,178.518c-.086.119-.62-.123-1.193-.539s-.968-.849-.881-.969.62.123,1.194.539S382.157,178.4,382.07,178.518Z" transform="translate(-379.984 -176.98)" fill="#fafafa"/>
      </g>
      <g id="Group_1266" data-name="Group 1266" transform="translate(37.151 85.268)">
        <path id="Path_1598" data-name="Path 1598" d="M398.082,182.391c.06.134-.271.412-.74.62s-.9.268-.956.133.272-.412.74-.619S398.022,182.256,398.082,182.391Z" transform="translate(-396.379 -182.319)" fill="#fafafa"/>
      </g>
      <g id="Group_1267" data-name="Group 1267" transform="translate(25.819 100.226)">
        <path id="Path_1599" data-name="Path 1599" d="M387.207,200.726c-.132.065-.66-.725-1.18-1.765s-.836-1.939-.7-2,.659.725,1.179,1.766S387.338,200.661,387.207,200.726Z" transform="translate(-385.293 -196.953)" fill="#fafafa"/>
      </g>
      <g id="Group_1268" data-name="Group 1268" transform="translate(45.792 99.47)">
        <path id="Path_1600" data-name="Path 1600" d="M404.87,199.046c-.13-.068.1-.757.518-1.538s.86-1.357.989-1.289-.1.758-.519,1.539S405,199.116,404.87,199.046Z" transform="translate(-404.834 -196.214)" fill="#fafafa"/>
      </g>
      <g id="Group_1269" data-name="Group 1269" transform="translate(37.308 114.549)">
        <path id="Path_1601" data-name="Path 1601" d="M397.136,214.552c-.15-.022-.139-.829-.3-1.788s-.406-1.725-.27-1.793.633.654.8,1.71S397.275,214.581,397.136,214.552Z" transform="translate(-396.533 -210.967)" fill="#fafafa"/>
      </g>
      <g id="Group_1270" data-name="Group 1270" transform="translate(27.525 125.093)">
        <path id="Path_1602" data-name="Path 1602" d="M388.866,223.372c-.108.1-.618-.285-1.139-.857s-.854-1.117-.746-1.215.619.284,1.14.858S388.975,223.273,388.866,223.372Z" transform="translate(-386.961 -221.284)" fill="#fafafa"/>
      </g>
      <g id="Group_1271" data-name="Group 1271" transform="translate(49.998 128.509)">
        <path id="Path_1603" data-name="Path 1603" d="M408.966,226.731c-.105-.1.271-.654.839-1.231s1.113-.962,1.218-.859-.271.655-.839,1.232S409.071,226.835,408.966,226.731Z" transform="translate(-408.949 -224.626)" fill="#fafafa"/>
      </g>
      <g id="Group_1272" data-name="Group 1272" transform="translate(38.065 140.755)">
        <path id="Path_1604" data-name="Path 1604" d="M397.384,240.008c-.145-.022-.148-.8-.005-1.741s.376-1.681.521-1.66.147.8.005,1.741S397.529,240.03,397.384,240.008Z" transform="translate(-397.274 -236.608)" fill="#fafafa"/>
      </g>
      <g id="Group_1273" data-name="Group 1273" transform="translate(28.639 148.098)">
        <path id="Path_1605" data-name="Path 1605" d="M389.621,246.421c-.127.074-.573-.453-1-1.177s-.665-1.372-.538-1.445.573.453,1,1.176S389.748,246.346,389.621,246.421Z" transform="translate(-388.051 -243.791)" fill="#fafafa"/>
      </g>
      <g id="Group_1274" data-name="Group 1274" transform="translate(46.755 158.999)">
        <path id="Path_1606" data-name="Path 1606" d="M408.422,254.482c.085.12-.435.639-1.164,1.16s-1.388.846-1.473.728.435-.64,1.163-1.161S408.336,254.362,408.422,254.482Z" transform="translate(-405.776 -254.457)" fill="#fafafa"/>
      </g>
      <g id="Group_1275" data-name="Group 1275" transform="translate(33.363 166.009)">
        <path id="Path_1607" data-name="Path 1607" d="M392.726,265.094c-.143-.052.04-.876.125-1.892s.058-1.859.209-1.885.421.834.322,1.932S392.857,265.148,392.726,265.094Z" transform="translate(-392.673 -261.316)" fill="#fafafa"/>
      </g>
      <g id="Group_1276" data-name="Group 1276" transform="translate(38.26 183.333)">
        <path id="Path_1608" data-name="Path 1608" d="M399,280.165c-.115.092-.546-.256-.962-.776s-.661-1.017-.547-1.109.546.256.962.776S399.116,280.073,399,280.165Z" transform="translate(-397.464 -278.266)" fill="#fafafa"/>
      </g>
      <g id="Group_1277" data-name="Group 1277" transform="translate(30.726 192.575)">
        <path id="Path_1609" data-name="Path 1609" d="M392.19,290.331c-.122.084-.684-.524-1.256-1.356s-.938-1.576-.818-1.659.684.524,1.256,1.357S392.311,290.248,392.19,290.331Z" transform="translate(-390.093 -287.308)" fill="#fafafa"/>
      </g>
      <g id="Group_1278" data-name="Group 1278" transform="translate(51.953 181.08)">
        <path id="Path_1610" data-name="Path 1610" d="M410.956,277.575c-.138-.051-.123-.43.034-.847s.393-.711.531-.66.123.431-.034.847S411.094,277.627,410.956,277.575Z" transform="translate(-410.862 -276.061)" fill="#fafafa"/>
      </g>
      <g id="Group_1279" data-name="Group 1279" transform="translate(43.528 203.891)">
        <path id="Path_1611" data-name="Path 1611" d="M402.657,301.773c-.135-.072.122-.8.32-1.709s.282-1.677.433-1.684.309.811.086,1.8S402.779,301.844,402.657,301.773Z" transform="translate(-402.619 -298.38)" fill="#fafafa"/>
      </g>
      <g id="Group_1280" data-name="Group 1280" transform="translate(48.055 47.251)">
        <path id="Path_1612" data-name="Path 1612" d="M408.07,147.191c-.133.062-.457-.349-.724-.918s-.374-1.082-.241-1.145.457.35.724.919S408.2,147.128,408.07,147.191Z" transform="translate(-407.048 -145.122)" fill="#fafafa"/>
      </g>
      <g id="Group_1281" data-name="Group 1281" transform="translate(32.043 17.468)">
        <path id="Path_1613" data-name="Path 1613" d="M394.235,116c.081.129-.639.7-1.4,1.522s-1.295,1.566-1.429,1.493.219-.986,1.04-1.857S394.165,115.88,394.235,116Z" transform="translate(-391.382 -115.982)" fill="#fafafa"/>
      </g>
      <g id="Group_1282" data-name="Group 1282" transform="translate(46.182 14.46)">
        <path id="Path_1614" data-name="Path 1614" d="M406.557,115.691c-.148.03-.388-.577-.743-1.278s-.689-1.261-.576-1.361.667.347,1.053,1.123S406.7,115.667,406.557,115.691Z" transform="translate(-405.216 -113.039)" fill="#fafafa"/>
      </g>
      <g id="Group_1283" data-name="Group 1283" transform="translate(8.128 24.662)">
        <path id="Path_1615" data-name="Path 1615" d="M368.035,125.856c-.136-.054,0-.732.313-1.514s.671-1.372.807-1.318,0,.732-.313,1.514S368.172,125.91,368.035,125.856Z" transform="translate(-367.983 -123.021)" fill="#fafafa"/>
      </g>
      <g id="Group_1284" data-name="Group 1284" transform="translate(7.177 41.026)">
        <path id="Path_1616" data-name="Path 1616" d="M369.327,140.938c-.094.113-.677-.217-1.3-.737s-1.055-1.034-.961-1.148.677.218,1.3.738S369.421,140.826,369.327,140.938Z" transform="translate(-367.052 -139.031)" fill="#fafafa"/>
      </g>
      <g id="Group_1285" data-name="Group 1285" transform="translate(34.445 3.348)">
        <path id="Path_1617" data-name="Path 1617" d="M394.56,104.057c-.137.055-.416-.323-.624-.843s-.266-.986-.13-1.041.416.323.625.844S394.7,104,394.56,104.057Z" transform="translate(-393.732 -102.167)" fill="#fafafa"/>
      </g>
      <g id="Group_1286" data-name="Group 1286" transform="translate(59.895 10.147)">
        <path id="Path_1618" data-name="Path 1618" d="M418.732,111.456c-.143-.031-.131-.647.029-1.375s.406-1.292.549-1.261.131.647-.029,1.376S418.876,111.488,418.732,111.456Z" transform="translate(-418.632 -108.819)" fill="#fafafa"/>
      </g>
      <g id="Group_1287" data-name="Group 1287" transform="translate(65.761 21.256)">
        <path id="Path_1619" data-name="Path 1619" d="M424.417,122.9c-.136-.056.049-.819.413-1.7s.77-1.557.906-1.5-.049.819-.413,1.7S424.553,122.95,424.417,122.9Z" transform="translate(-424.372 -119.688)" fill="#fafafa"/>
      </g>
      <g id="Group_1288" data-name="Group 1288" transform="translate(59.93 30.49)">
        <path id="Path_1620" data-name="Path 1620" d="M420.4,132.119c-.132.065-.618-.641-1.086-1.577s-.742-1.75-.61-1.815.617.64,1.086,1.577S420.527,132.054,420.4,132.119Z" transform="translate(-418.667 -128.723)" fill="#fafafa"/>
      </g>
      <g id="Group_1289" data-name="Group 1289" transform="translate(70.456 40.856)">
        <path id="Path_1621" data-name="Path 1621" d="M429.027,141.319c-.138-.052-.038-.644.223-1.321s.582-1.183.72-1.129.037.644-.223,1.32S429.164,141.372,429.027,141.319Z" transform="translate(-428.965 -138.865)" fill="#fafafa"/>
      </g>
      <g id="Group_1290" data-name="Group 1290" transform="translate(61.608 51.025)">
        <path id="Path_1622" data-name="Path 1622" d="M421.3,150.335c-.125.078-.437-.2-.7-.612s-.37-.818-.245-.9.436.2.7.613S421.427,150.257,421.3,150.335Z" transform="translate(-420.309 -148.814)" fill="#fafafa"/>
      </g>
      <g id="Group_1291" data-name="Group 1291" transform="translate(61.825 68.937)">
        <path id="Path_1623" data-name="Path 1623" d="M422.987,168.99c-.108.1-.744-.409-1.421-1.138s-1.138-1.4-1.03-1.5.744.409,1.421,1.139S423.095,168.891,422.987,168.99Z" transform="translate(-420.521 -166.34)" fill="#fafafa"/>
      </g>
      <g id="Group_1292" data-name="Group 1292" transform="translate(72.57 58.001)">
        <path id="Path_1624" data-name="Path 1624" d="M433.128,158.289c-.116.091-.674-.426-1.246-1.155s-.943-1.393-.828-1.484.674.426,1.246,1.155S433.244,158.2,433.128,158.289Z" transform="translate(-431.033 -155.64)" fill="#fafafa"/>
      </g>
      <g id="Group_1293" data-name="Group 1293" transform="translate(80.318 72.542)">
        <path id="Path_1625" data-name="Path 1625" d="M438.652,173.07c-.133-.062.1-.83.518-1.714s.866-1.548,1-1.485-.1.83-.518,1.713S438.785,173.134,438.652,173.07Z" transform="translate(-438.614 -169.867)" fill="#fafafa"/>
      </g>
      <g id="Group_1294" data-name="Group 1294" transform="translate(65.801 85.872)">
        <path id="Path_1626" data-name="Path 1626" d="M426.866,185.2c-.13.079-.605-.49-1.262-1.091s-1.256-1.035-1.188-1.171.831.114,1.548.78S426.991,185.136,426.866,185.2Z" transform="translate(-424.411 -182.909)" fill="#fafafa"/>
      </g>
      <g id="Group_1295" data-name="Group 1295" transform="translate(66.748 100.717)">
        <path id="Path_1627" data-name="Path 1627" d="M427.6,197.7c0,.146-.506.266-1.13.266s-1.13-.12-1.13-.266.506-.267,1.13-.267S427.6,197.554,427.6,197.7Z" transform="translate(-425.338 -197.434)" fill="#fafafa"/>
      </g>
      <g id="Group_1296" data-name="Group 1296" transform="translate(81.415 94.387)">
        <path id="Path_1628" data-name="Path 1628" d="M439.722,194.256c-.129-.08.134-.717.33-1.52s.273-1.486.424-1.5.318.731.092,1.625S439.839,194.336,439.722,194.256Z" transform="translate(-439.688 -191.24)" fill="#fafafa"/>
      </g>
      <g id="Group_1297" data-name="Group 1297" transform="translate(92.573 98.323)">
        <path id="Path_1629" data-name="Path 1629" d="M451.84,198.468c-.139.049-.516-.667-.843-1.6s-.479-1.726-.34-1.775.516.667.843,1.6S451.979,198.42,451.84,198.468Z" transform="translate(-450.605 -195.092)" fill="#fafafa"/>
      </g>
      <g id="Group_1298" data-name="Group 1298" transform="translate(91.809 115.689)">
        <path id="Path_1630" data-name="Path 1630" d="M449.887,215.671c-.13-.068.185-.926.7-1.915s1.044-1.738,1.175-1.669-.185.926-.7,1.915S450.017,215.74,449.887,215.671Z" transform="translate(-449.857 -212.083)" fill="#fafafa"/>
      </g>
      <g id="Group_1299" data-name="Group 1299" transform="translate(79.134 126.24)">
        <path id="Path_1631" data-name="Path 1631" d="M438.882,225.776c-.136.056-.556-.653-.937-1.582s-.582-1.728-.446-1.785.556.652.938,1.582S439.018,225.72,438.882,225.776Z" transform="translate(-437.456 -222.406)" fill="#fafafa"/>
      </g>
      <g id="Group_1300" data-name="Group 1300" transform="translate(66.182 133.323)">
        <path id="Path_1632" data-name="Path 1632" d="M426.669,229.6c0,.147-.421.266-.942.266s-.942-.119-.942-.266.422-.267.942-.267S426.669,229.456,426.669,229.6Z" transform="translate(-424.784 -229.336)" fill="#fafafa"/>
      </g>
      <g id="Group_1301" data-name="Group 1301" transform="translate(74.396 147.158)">
        <path id="Path_1633" data-name="Path 1633" d="M433.654,245.7c-.142.038-.426-.564-.635-1.345s-.262-1.444-.12-1.482.426.564.635,1.345S433.8,245.663,433.654,245.7Z" transform="translate(-432.82 -242.872)" fill="#fafafa"/>
      </g>
      <g id="Group_1302" data-name="Group 1302" transform="translate(66.138 142.626)">
        <path id="Path_1634" data-name="Path 1634" d="M424.785,240.333c-.126-.076.026-.558.337-1.079s.667-.881.794-.805-.026.559-.337,1.079S424.912,240.409,424.785,240.333Z" transform="translate(-424.741 -238.438)" fill="#fafafa"/>
      </g>
      <g id="Group_1303" data-name="Group 1303" transform="translate(65.481 159.41)">
        <path id="Path_1635" data-name="Path 1635" d="M424.611,258.064c-.146.017-.348-.686-.453-1.571s-.07-1.616.076-1.633.349.687.453,1.572S424.757,258.048,424.611,258.064Z" transform="translate(-424.098 -254.86)" fill="#fafafa"/>
      </g>
    </g>
  </g>
</svg>
